<svg width="50" height="53" viewBox="0 0 50 53" fill="none" xmlns="http://www.w3.org/2000/svg">
<g clip-path="url(#clip0_262_235)">
<path d="M25.5401 52.45C24.9801 52.08 25.0401 51.45 25.0501 50.95C25.0501 49.9 25.0501 49.9 24.0501 49.9H20.5201C20.0273 49.9229 19.5351 49.8425 19.0752 49.664C18.6152 49.4856 18.1977 49.2129 17.8493 48.8636C17.5009 48.5143 17.2294 48.096 17.0522 47.6356C16.8749 47.1751 16.7959 46.6828 16.8201 46.19C16.8201 43.59 16.8201 41 16.8201 38.41V37.81C16.6249 37.8535 16.4473 37.9545 16.3101 38.1L13.1101 40.58C12.9852 40.7135 12.8222 40.8052 12.6432 40.8428C12.4643 40.8804 12.2782 40.8619 12.1101 40.79C11.7301 40.59 11.7001 40.24 11.7001 39.87C11.7001 39.17 11.7001 38.47 11.7001 37.77C11.7001 37.37 11.5701 37.28 11.2001 37.28C9.1201 37.28 7.03677 37.28 4.9501 37.28C3.9005 37.3247 2.86587 37.0188 2.00942 36.4104C1.15296 35.802 0.523424 34.9258 0.220096 33.92C0.0974366 33.484 0.0368403 33.0329 0.0400956 32.58C0.0400956 30.04 0.0400956 27.49 0.0400956 24.95C0.0400956 24.51 0.170096 24.17 0.650096 24.08C0.767179 24.0496 0.889925 24.0484 1.00759 24.0764C1.12526 24.1044 1.23427 24.1609 1.32506 24.2408C1.41585 24.3208 1.48566 24.4218 1.52838 24.5349C1.5711 24.6481 1.58542 24.77 1.57009 24.89C1.57009 25.66 1.57009 26.43 1.57009 27.19C1.57009 28.92 1.57009 30.64 1.57009 32.37C1.54079 32.8153 1.60676 33.2618 1.76361 33.6797C1.92045 34.0975 2.16457 34.4771 2.47968 34.7932C2.79479 35.1092 3.17366 35.3545 3.59103 35.5126C4.0084 35.6707 4.45467 35.738 4.9001 35.71C7.2701 35.71 9.6501 35.71 12.0201 35.71C13.0201 35.71 13.2301 35.89 13.2301 36.95V38.36C13.4101 38.44 13.4901 38.36 13.5701 38.25L16.6601 35.88C16.8069 35.7647 16.9093 35.6022 16.9501 35.42C17.1491 34.6993 17.5742 34.0616 18.1629 33.6007C18.7516 33.1398 19.4727 32.8802 20.2201 32.86C20.6601 32.86 21.1101 32.86 21.5501 32.86C21.9901 32.86 21.9701 32.78 21.9701 32.46C21.9701 27.78 21.9701 23.1 21.9701 18.46C21.9518 17.658 21.6203 16.895 21.0465 16.3343C20.4728 15.7736 19.7023 15.4598 18.9001 15.46C14.1601 15.46 9.41676 15.46 4.67009 15.46C3.85656 15.4652 3.07769 15.79 2.50149 16.3643C1.92529 16.9387 1.59795 17.7165 1.5901 18.53C1.5901 19.06 1.5901 19.59 1.5901 20.12C1.5901 20.65 1.31009 20.99 0.810092 20.99C0.310092 20.99 0.0500922 20.71 0.0600922 20.11C0.00850148 19.2754 0.0420137 18.4378 0.160098 17.61C0.369578 16.5887 0.91833 15.6683 1.71716 14.9984C2.51599 14.3284 3.51792 13.9484 4.56009 13.92C9.38009 13.92 14.1901 13.92 19.0101 13.92C19.2901 13.92 19.6601 14.14 19.8401 13.92C20.0201 13.7 19.9101 13.3 19.9101 12.98C19.9101 10.68 19.9101 8.37 19.9101 6.07C19.8731 5.27223 20.0029 4.47552 20.2913 3.7308C20.5798 2.98608 21.0204 2.30974 21.5851 1.74503C22.1498 1.18032 22.8262 0.739664 23.5709 0.451238C24.3156 0.162813 25.1123 0.0329637 25.9101 0.0699974H36.2001C36.8001 0.0699974 37.0801 0.269999 37.1301 0.719999C37.1801 1.17 36.8701 1.6 36.2201 1.6H25.9201C25.5621 1.5934 25.2042 1.61682 24.8501 1.67C23.9047 1.83679 23.0466 2.32697 22.4227 3.05665C21.7989 3.78632 21.448 4.71014 21.4301 5.67C21.4301 8.57 21.4301 11.48 21.4301 14.38C21.4284 14.4876 21.453 14.5939 21.5019 14.6897C21.5507 14.7856 21.6221 14.8681 21.7101 14.93C22.2914 15.3846 22.7568 15.9706 23.0679 16.6398C23.3791 17.309 23.5272 18.0425 23.5001 18.78C23.5001 21.44 23.5001 24.1 23.5001 26.78C23.4798 26.9299 23.5141 27.0821 23.5967 27.2087C23.6793 27.3354 23.8048 27.4282 23.9501 27.47C24.5517 27.7084 25.193 27.8305 25.8401 27.83H34.7001C35.5601 27.83 35.7801 28.06 35.7901 28.93V31.44C36.0401 31.44 36.1501 31.29 36.2901 31.18C37.6201 30.18 38.9501 29.18 40.2901 28.18C40.5436 27.9798 40.8571 27.8706 41.1801 27.87C42.1802 27.9216 43.1828 27.9015 44.1801 27.81C45.1553 27.6827 46.0519 27.2082 46.7057 26.4736C47.3595 25.739 47.7267 24.7934 47.7401 23.81C47.7401 17.81 47.7401 11.7867 47.7401 5.74C47.7427 5.19381 47.6373 4.65248 47.4298 4.14723C47.2223 3.64198 46.9168 3.18277 46.5311 2.79609C46.1453 2.4094 45.6869 2.10287 45.1821 1.89416C44.6774 1.68544 44.1363 1.57867 43.5901 1.58C42.8401 1.58 42.0901 1.58 41.3301 1.58C40.7601 1.58 40.4701 1.3 40.4801 0.800001C40.474 0.691969 40.4924 0.583959 40.5339 0.484006C40.5753 0.384054 40.6387 0.294725 40.7194 0.222662C40.8001 0.150598 40.8961 0.0976547 41.0001 0.067762C41.104 0.0378693 41.2134 0.0317979 41.3201 0.0500008C42.5304 -0.0283795 43.7458 0.0387641 44.9401 0.249998C46.1341 0.552615 47.1965 1.23713 47.9655 2.19932C48.7346 3.16151 49.1681 4.34866 49.2001 5.58C49.2001 11.6267 49.2001 17.67 49.2001 23.71C49.1662 25.1956 48.5535 26.6093 47.4925 27.6498C46.4315 28.6902 45.0061 29.2752 43.5201 29.28C42.8901 29.28 42.2501 29.28 41.6201 29.28C41.3137 29.2686 41.0142 29.372 40.7801 29.57L35.6701 33.49C35.3501 33.73 35.0401 33.92 34.6701 33.71C34.5138 33.6212 34.3892 33.4857 34.3138 33.3225C34.2385 33.1593 34.2162 32.9765 34.2501 32.8C34.2501 31.8 34.2501 30.8 34.2501 29.88C34.2501 29.42 34.1601 29.27 33.6701 29.27C31.3301 29.27 28.9901 29.27 26.6701 29.27C25.602 29.3372 24.5311 29.191 23.5201 28.84V31.43C23.5201 31.87 23.3801 32.43 23.6001 32.72C23.8201 33.01 24.4701 32.82 24.9201 32.82H30.0401C30.5538 32.7795 31.0702 32.8508 31.5538 33.0288C32.0373 33.2068 32.4766 33.4874 32.8415 33.8513C33.2063 34.2152 33.4881 34.6538 33.6674 35.1369C33.8466 35.62 33.9192 36.1362 33.8801 36.65C33.8801 37.78 33.8801 38.91 33.8801 40.03C33.8801 40.64 33.5201 40.94 32.9701 40.86C32.4201 40.78 32.3501 40.44 32.3501 40V36.72C32.3501 35.1 31.5901 34.35 29.9601 34.35H20.6901C19.0701 34.35 18.3201 35.1 18.3201 36.74V45.96C18.2682 46.2839 18.294 46.6155 18.3955 46.9274C18.4969 47.2394 18.671 47.5228 18.9034 47.7543C19.1358 47.9857 19.42 48.1586 19.7323 48.2587C20.0447 48.3588 20.3764 48.3833 20.7001 48.33H25.4201C26.4201 48.33 26.5801 48.52 26.5901 49.49V49.94C26.7501 50.05 26.8201 49.94 26.9101 49.86C27.2196 49.6434 27.5167 49.4097 27.8001 49.16C28.1133 48.851 28.4907 48.6147 28.9055 48.4678C29.3202 48.3209 29.7622 48.267 30.2001 48.31C30.482 48.3315 30.7651 48.2929 31.031 48.1969C31.2969 48.101 31.5394 47.9497 31.7426 47.7532C31.9457 47.5567 32.1049 47.3193 32.2096 47.0567C32.3143 46.7942 32.3622 46.5124 32.3501 46.23C32.3501 45.8 32.3501 45.38 32.3501 44.95C32.3439 44.8508 32.3593 44.7514 32.3951 44.6587C32.4309 44.566 32.4863 44.4821 32.5575 44.4128C32.6287 44.3435 32.7141 44.2904 32.8077 44.2571C32.9014 44.2238 33.0011 44.2112 33.1001 44.22C33.1993 44.208 33.3 44.2181 33.3949 44.2494C33.4898 44.2808 33.5767 44.3327 33.6493 44.4014C33.7218 44.4702 33.7783 44.5541 33.8148 44.6472C33.8512 44.7403 33.8667 44.8403 33.8601 44.94C33.9384 45.7045 33.9013 46.4765 33.7501 47.23C33.5602 47.9815 33.1243 48.6477 32.5117 49.1226C31.8991 49.5974 31.1452 49.8535 30.3701 49.85C29.7097 49.821 29.064 50.0506 28.5701 50.49C27.7901 51.17 26.9501 51.78 26.1401 52.42L25.5401 52.45Z" fill="#0D2E48"/>
<path d="M25.71 17.64C25.71 16.18 25.71 14.7101 25.71 13.2401C25.71 12.4901 25.94 12.2401 26.71 12.2401C27.93 12.2401 29.16 12.2401 30.39 12.2401C30.54 12.2401 30.75 12.2401 30.84 12.2401C31.3 12.6401 31.5 12.2401 31.75 11.9801C32.27 11.3801 32.75 10.8 33.31 10.21C34.0296 9.42171 34.4506 8.40634 34.5 7.34005C34.5024 7.08466 34.5463 6.83137 34.63 6.59005C34.7313 6.30688 34.9149 6.06042 35.1572 5.88226C35.3995 5.70409 35.6895 5.60235 35.99 5.59005C36.2898 5.55823 36.5922 5.61875 36.8567 5.76351C37.1212 5.90826 37.3351 6.13035 37.47 6.40005C37.9213 7.17933 38.186 8.05257 38.2432 8.9513C38.3005 9.85002 38.1488 10.7498 37.8 11.58C37.61 12.05 37.73 12.1001 38.16 12.0901C39.16 12.0901 40.24 12.0901 41.28 12.0901C41.5569 12.076 41.8337 12.1197 42.0929 12.2184C42.352 12.317 42.5878 12.4685 42.7853 12.6631C42.9828 12.8578 43.1376 13.0914 43.24 13.3491C43.3424 13.6068 43.39 13.8829 43.38 14.1601V21.28C43.4002 21.5629 43.3601 21.8467 43.2623 22.1129C43.1644 22.379 43.0111 22.6213 42.8126 22.8236C42.614 23.026 42.3746 23.1838 42.1104 23.2867C41.8462 23.3895 41.5631 23.4349 41.28 23.42C39.98 23.42 38.69 23.42 37.39 23.42H34.32C33.3777 23.444 32.445 23.2272 31.61 22.79C31.43 22.69 31.29 22.62 31.14 22.79C31.0498 22.881 30.9393 22.9493 30.8176 22.9893C30.6959 23.0292 30.5665 23.0398 30.44 23.0201H26.65C25.97 23.0201 25.72 22.77 25.72 22.1C25.71 20.65 25.71 19.15 25.71 17.64ZM36.09 7.18005C36.09 7.38005 36.02 7.44005 36.02 7.50005C35.9403 9.03669 35.2957 10.4897 34.21 11.58C33.34 12.58 32.49 13.5801 31.63 14.4901C31.5457 14.5737 31.4792 14.6735 31.4345 14.7835C31.3899 14.8935 31.3679 15.0114 31.37 15.1301C31.37 16.9001 31.37 18.6801 31.37 20.4501C31.3657 20.5594 31.3891 20.6681 31.4381 20.766C31.487 20.8639 31.5599 20.9478 31.65 21.0101C32.3843 21.6045 33.3054 21.9197 34.25 21.9H41.12C41.73 21.9 41.84 21.7901 41.84 21.1901V14.3701C41.84 13.7101 41.76 13.6301 41.1 13.6301C39.6 13.6301 38.1 13.6301 36.59 13.6301C35.84 13.6301 35.52 13.13 35.8 12.43C36.01 11.89 36.26 11.36 36.45 10.82C36.6558 10.2232 36.7303 9.58894 36.6681 8.96067C36.606 8.3324 36.4088 7.72498 36.09 7.18005ZM29.84 17.6301C29.84 16.4901 29.84 15.3401 29.84 14.2001C29.84 13.9001 29.78 13.77 29.45 13.79C28.86 13.79 28.26 13.79 27.66 13.79C27.37 13.79 27.24 13.86 27.25 14.18C27.25 16.5 27.25 18.8334 27.25 21.18C27.25 21.49 27.32 21.6101 27.65 21.5901C28.24 21.5901 28.84 21.5901 29.43 21.5901C29.79 21.5901 29.85 21.45 29.84 21.14C29.83 19.94 29.84 18.7901 29.84 17.6301Z" fill="#0D2E48"/>
<path d="M8.04005 23.2801H8.50005C9.70005 23.2801 9.70004 23.2801 9.88004 22.0601C9.95004 21.5601 10.03 21.0601 10.13 20.5501C10.1364 20.4427 10.1659 20.338 10.2163 20.243C10.2667 20.148 10.337 20.0649 10.4224 19.9995C10.5078 19.934 10.6062 19.8877 10.7111 19.8636C10.8159 19.8396 10.9247 19.8384 11.03 19.8601C11.1326 19.8734 11.2311 19.9087 11.3188 19.9635C11.4065 20.0183 11.4814 20.0914 11.5383 20.1778C11.5953 20.2641 11.6329 20.3617 11.6488 20.4639C11.6646 20.5661 11.6582 20.6706 11.63 20.7701C11.55 21.4501 11.43 22.1201 11.31 22.7701C11.24 23.1201 11.31 23.3101 11.71 23.2701C12.11 23.2301 12.71 23.3901 13 23.1801C13.29 22.9701 13.21 22.3701 13.3 21.9401C13.39 21.5101 13.46 20.9401 13.56 20.4801C13.5717 20.3775 13.6047 20.2785 13.6569 20.1894C13.7092 20.1004 13.7794 20.0232 13.8633 19.9629C13.9471 19.9027 14.0426 19.8606 14.1437 19.8394C14.2447 19.8183 14.3491 19.8185 14.4501 19.8401C14.5508 19.8579 14.6469 19.8959 14.7326 19.9518C14.8182 20.0077 14.8918 20.0803 14.9487 20.1653C15.0057 20.2502 15.0449 20.3458 15.064 20.4463C15.0832 20.5468 15.0818 20.6501 15.06 20.7501C14.95 21.4401 14.84 22.1301 14.71 22.8201C14.65 23.1301 14.71 23.2901 15.07 23.2701C15.43 23.2501 16.07 23.2701 16.5 23.2701C17.3 23.2701 17.66 23.5001 17.67 24.0301C17.68 24.5601 17.31 24.8101 16.48 24.8101C15.95 24.8101 15.42 24.8101 14.9 24.8101C14.38 24.8101 14.33 24.9501 14.29 25.3301C14.2769 25.6673 14.23 26.0023 14.15 26.3301C14.06 26.6601 14.15 26.7501 14.48 26.7401C15.3 26.7401 16.12 26.7401 16.94 26.7401C17.0349 26.7359 17.1295 26.7514 17.2181 26.7854C17.3067 26.8195 17.3873 26.8715 17.4548 26.9381C17.5224 27.0048 17.5755 27.0846 17.6108 27.1727C17.6461 27.2608 17.6629 27.3552 17.66 27.4501C17.6682 27.5484 17.6564 27.6473 17.6253 27.741C17.5941 27.8346 17.5444 27.9209 17.4789 27.9947C17.4135 28.0686 17.3338 28.1284 17.2446 28.1706C17.1554 28.2127 17.0586 28.2364 16.96 28.2401C16.8236 28.2502 16.6865 28.2502 16.55 28.2401C15.8 28.2401 15.05 28.2401 14.3 28.2401C13.95 28.2401 13.79 28.3101 13.74 28.7001C13.66 29.4601 13.51 30.2101 13.37 30.9701C13.3627 31.0813 13.3314 31.1896 13.2781 31.2874C13.2248 31.3853 13.151 31.4705 13.0616 31.537C12.9722 31.6036 12.8695 31.65 12.7604 31.6729C12.6514 31.6959 12.5387 31.6949 12.43 31.6701C12.3261 31.6437 12.2286 31.5964 12.1436 31.5311C12.0585 31.4659 11.9876 31.384 11.9352 31.2904C11.8828 31.1968 11.85 31.0936 11.8388 30.9869C11.8276 30.8803 11.8382 30.7725 11.87 30.6701C11.97 30.0201 12.0701 29.3601 12.2001 28.6701C12.2801 28.2901 12.2 28.2001 11.8 28.2001C10.39 28.2001 10.39 28.2001 10.19 29.5701C10.12 30.0301 10.05 30.4801 9.96004 30.9401C9.95207 31.0469 9.92163 31.1507 9.8707 31.2449C9.81978 31.3391 9.74954 31.4215 9.66457 31.4866C9.57959 31.5518 9.48181 31.5982 9.37763 31.623C9.27345 31.6477 9.16523 31.6501 9.06004 31.6301C8.95799 31.615 8.86023 31.5787 8.77303 31.5236C8.68582 31.4685 8.61109 31.3958 8.55365 31.3101C8.49621 31.2244 8.45733 31.1276 8.43948 31.026C8.42164 30.9244 8.42524 30.8202 8.45005 30.7201C8.54005 30.0201 8.65005 29.3101 8.80005 28.6101C8.87005 28.2601 8.80005 28.1901 8.45005 28.2001C7.89005 28.2001 7.32005 28.2001 6.76005 28.2001C6.20005 28.2001 5.82005 27.9001 5.84005 27.4101C5.86005 26.9201 6.17005 26.6801 6.75005 26.6701C7.33005 26.6601 8.08005 26.6701 8.75005 26.6701C9.02005 26.6701 9.15004 26.6001 9.17004 26.3101C9.2139 25.937 9.27733 25.5665 9.36005 25.2001C9.42005 24.8901 9.36005 24.7701 9.00005 24.7801C8.27005 24.7801 7.53005 24.7801 6.80005 24.7801C6.07005 24.7801 5.80005 24.5201 5.80005 24.0401C5.80005 23.5601 6.14005 23.2601 6.80005 23.2501L8.04005 23.2801ZM11.62 26.7001C12.51 26.7001 12.51 26.7001 12.62 25.8201V25.6701C12.78 24.8201 12.78 24.8201 11.9 24.8201C11.02 24.8201 10.9 24.8201 10.75 25.8201C10.6 26.8201 10.65 26.7001 11.61 26.7001H11.62Z" fill="#F37043"/>
<path d="M29.74 40.7601C29.7312 41.7439 29.3361 42.6849 28.64 43.3801C27.7774 44.1956 26.7921 44.8705 25.72 45.3801C25.6072 45.4441 25.4797 45.4777 25.35 45.4777C25.2203 45.4777 25.0928 45.4441 24.98 45.3801C23.8165 44.8455 22.7647 44.0957 21.88 43.1701C21.4622 42.7258 21.1655 42.1817 21.0184 41.5898C20.8713 40.998 20.8788 40.3783 21.04 39.7901C21.1396 39.3801 21.3344 38.9993 21.6084 38.6784C21.8824 38.3576 22.2281 38.1057 22.6175 37.9431C23.0069 37.7806 23.429 37.7119 23.8498 37.7426C24.2707 37.7734 24.6784 37.9027 25.04 38.1201C25.1101 38.1744 25.1963 38.2039 25.285 38.2039C25.3737 38.2039 25.4599 38.1744 25.53 38.1201C25.9701 37.8486 26.4774 37.7057 26.9945 37.7075C27.5117 37.7094 28.0179 37.856 28.456 38.1308C28.8941 38.4055 29.2466 38.7974 29.4735 39.2621C29.7004 39.7267 29.7927 40.2457 29.74 40.7601ZM28.2 40.7601C28.2302 40.4686 28.1632 40.1752 28.0095 39.9257C27.8558 39.6761 27.6239 39.4843 27.35 39.3801C26.8 39.1901 26.45 39.3801 25.98 39.9501C25.51 40.5201 24.98 40.4301 24.61 39.8301C24.5028 39.6428 24.341 39.4926 24.1463 39.3997C23.9515 39.3068 23.733 39.2755 23.52 39.3101C23.2907 39.3273 23.0721 39.4141 22.8934 39.5588C22.7147 39.7036 22.5845 39.8994 22.52 40.1201C22.3997 40.4883 22.3847 40.8828 22.4765 41.2592C22.5684 41.6355 22.7636 41.9787 23.04 42.2501C23.6239 42.8518 24.2988 43.358 25.04 43.7501C25.1012 43.794 25.1746 43.8177 25.25 43.8177C25.3253 43.8177 25.3988 43.794 25.46 43.7501C26.1908 43.3662 26.8641 42.8814 27.46 42.3101C27.6794 42.1154 27.8578 41.8789 27.9848 41.6145C28.1119 41.3501 28.185 41.063 28.2 40.7701V40.7601Z" fill="#0D2E48"/>
</g>
<defs>
<clipPath id="clip0_262_235">
<rect width="49.22" height="52.45" fill="white"/>
</clipPath>
</defs>
</svg>
