<svg width="24" height="23" viewBox="0 0 24 23" fill="none" xmlns="http://www.w3.org/2000/svg">
<path d="M9.88331 13.0536C9.77512 13.1077 9.61278 13.1077 9.50459 13.1618C9.18 13.27 9.18 13.27 9.23409 13.5945C9.34229 13.9191 9.34232 13.9191 9.66691 13.811C9.72101 13.811 9.77507 13.8109 9.82916 13.7568C10.3701 13.5946 10.3161 13.7028 10.2079 13.2159C10.0997 13.0536 10.0456 12.9454 9.88331 13.0536Z" fill="#F37043"/>
<path d="M11.2358 10.7814C11.1817 10.2945 11.1276 10.2404 10.6407 10.3486C10.0997 10.5109 10.0997 10.3486 10.3161 10.9437C10.3702 10.9978 10.4784 11.0519 10.5325 11.0519C10.7489 10.9978 10.9653 10.9437 11.1817 10.8896C11.1817 10.9437 11.2358 10.8355 11.2358 10.7814Z" fill="#F37043"/>
<path d="M9.61292 11.2141C9.55882 11.0518 9.5047 10.8895 9.4506 10.6731C9.28831 10.7272 9.126 10.7813 8.9637 10.7813C8.53092 10.8895 8.47682 10.9977 8.69321 11.4305C8.69321 11.4846 8.80143 11.5387 8.85553 11.5387C9.07193 11.4846 9.28829 11.4305 9.50469 11.3764C9.55878 11.3764 9.61292 11.2682 9.61292 11.2141Z" fill="#F37043"/>
<path d="M9.50486 12.6207C9.55896 12.6207 9.61308 12.5666 9.66718 12.5666C9.99177 12.4584 9.99178 12.4584 9.88359 12.1879C9.77539 11.8633 9.77536 11.8633 9.45077 11.9174C9.34258 11.9174 9.28848 11.9715 9.18028 11.9715C8.85569 12.0797 8.85568 12.0797 8.96388 12.4043C9.07207 12.7289 9.0721 12.7289 9.39669 12.6207C9.39669 12.6207 9.45076 12.6207 9.50486 12.6207Z" fill="#F37043"/>
<path d="M11.236 12.1338C11.5606 12.0256 11.5606 12.0256 11.5065 11.701C11.3983 11.3764 11.3983 11.3764 11.1278 11.4846C11.0737 11.4846 11.0196 11.4846 10.9655 11.5387C10.4786 11.6469 10.4786 11.6469 10.5327 11.9715C10.6409 12.3502 10.6409 12.3502 10.9655 12.242C11.0737 12.1879 11.1819 12.1879 11.236 12.1338Z" fill="#F37043"/>
<path d="M12.7505 9.91567C12.7505 9.91567 12.7505 9.91567 12.6964 9.86157C12.4259 9.91567 12.1554 9.96977 11.939 10.078C11.8849 10.078 11.8849 10.1321 11.8308 10.1862C11.8308 10.619 11.9931 10.7271 12.3718 10.6189C12.9669 10.5107 12.9668 10.5108 12.7505 9.91567Z" fill="#F37043"/>
<path d="M11.2899 12.6747C10.7489 12.837 10.7489 12.837 10.9112 13.2698C10.9653 13.3239 11.0735 13.3779 11.1276 13.3779C11.344 13.3238 11.5604 13.2698 11.7768 13.2157C11.8309 13.2157 11.885 13.1075 11.885 13.0534C11.8309 12.6206 11.7227 12.5665 11.2899 12.6747Z" fill="#F37043"/>
<path d="M12.9671 12.188C12.8589 12.188 12.8048 12.242 12.6966 12.242C12.372 12.3502 12.372 12.3502 12.4802 12.6748C12.5884 12.9994 12.5885 12.9994 12.913 12.9453C12.9671 12.9453 13.0212 12.9453 13.0753 12.8912C13.6163 12.7289 13.5622 12.8371 13.454 12.4584C13.3458 12.1339 13.3458 12.1339 12.9671 12.188Z" fill="#F37043"/>
<path d="M20.5406 5.31736C18.2144 2.88293 13.9947 0.556698 11.0193 0.123911C8.20618 -0.308876 3.01273 0.232118 1.28159 4.34359C-1.36923 10.5649 0.57828 13.9731 2.74221 18.0846C3.2832 19.0042 3.66193 19.6534 5.55537 21.3305C7.44881 23.0616 12.1554 24.1977 20.216 17.219C25.3554 12.7288 22.8127 7.80588 20.5406 5.31736ZM17.6733 8.34687C17.6193 8.67146 17.3488 8.83376 17.0242 8.94195C16.5373 9.15835 15.9963 9.26653 15.4553 9.26653C14.4816 9.32063 13.8324 8.72555 13.7242 7.69768C15.0767 7.96817 16.2668 7.75178 17.457 7.1026C17.6193 7.53538 17.7815 7.91408 17.6733 8.34687ZM3.01271 10.3485C3.01271 9.64522 3.06683 8.99605 3.17503 8.29277C3.22913 8.13047 3.28322 8.02227 3.44552 7.91407C5.06847 6.77801 6.85369 6.02064 8.69304 5.42556C10.9111 4.77638 13.1832 4.45179 15.5094 4.61409C15.834 4.61409 16.0504 4.72227 16.2668 4.99276C16.6996 5.53375 17.1324 6.12883 17.4029 6.83211C17.0242 6.9944 16.6455 7.15671 16.2668 7.2649C15.4553 7.53539 14.5898 7.53538 13.7783 7.37309C13.6701 7.37309 13.5619 7.2649 13.5619 7.2108C13.4537 6.88621 13.1832 6.66981 12.8586 6.61572C12.3718 6.56162 11.8848 6.56162 11.398 6.61572C10.0996 6.83211 8.85537 7.1567 7.7193 7.69768C7.44881 7.85998 7.12422 8.02227 6.90783 8.23867C6.63734 8.45506 6.47499 8.72555 6.58319 9.10424C6.58319 9.15834 6.5832 9.26653 6.5291 9.26653C5.66353 10.1321 4.58155 10.6731 3.33728 10.6731C3.06679 10.6731 3.01271 10.5649 3.01271 10.3485ZM4.20291 12.4042C3.87832 12.4042 3.6619 12.2419 3.49961 11.9714C3.33731 11.701 3.28324 11.3764 3.12094 10.9977C4.5816 11.1059 5.71764 10.619 6.74551 9.69933C7.1242 10.4567 6.96187 11.3223 6.31269 11.8092C5.60942 12.1878 4.90619 12.4042 4.20291 12.4042ZM17.6733 15.4878C15.9422 15.9747 14.157 16.4075 12.4258 16.8944C10.6947 17.3813 8.90947 17.8141 7.17832 18.301C6.85373 18.4092 6.8537 18.4092 6.74551 18.0305C6.63731 17.6518 6.52913 17.219 6.42093 16.8403C6.15044 15.9747 6.20454 15.1092 6.42093 14.2436C6.79962 12.9993 7.17829 11.7551 7.55698 10.5108C7.61108 10.3485 7.61108 10.1862 7.55698 10.0239C7.50288 9.69933 7.39469 9.37473 7.28649 9.05014C7.23239 8.88785 7.28652 8.83375 7.44881 8.77965C7.8816 8.67145 8.31433 8.56325 8.74712 8.45506C8.90942 8.40096 8.96353 8.45506 8.96353 8.56326C9.01762 8.77965 9.07175 8.99605 9.12585 9.21245C9.17995 9.37474 9.23405 9.42883 9.39634 9.37473C10.0455 9.21244 10.6406 9.05015 11.2898 8.88785C11.4521 8.83375 11.452 8.77966 11.452 8.61736C11.3979 8.40097 11.3439 8.18457 11.2898 7.96817C11.2357 7.85998 11.2898 7.75178 11.398 7.75178C11.8307 7.64359 12.3176 7.53538 12.7504 7.37309C12.9127 7.31899 12.9668 7.3731 13.0209 7.53539C13.1291 7.85998 13.1832 8.23867 13.2914 8.56326C13.3455 8.72555 13.3996 8.83376 13.5078 8.94195C14.4816 9.86163 15.4013 10.7272 16.375 11.5928C16.9701 12.1338 17.4029 12.837 17.5652 13.6485C17.6734 14.1354 17.8356 14.6223 17.9438 15.0551C17.9979 15.4338 17.9979 15.4337 17.6733 15.4878Z" fill="#F37043"/>
<path d="M12.9129 11.7009C13.2375 11.5927 13.2375 11.5927 13.1293 11.3222C13.0211 10.9976 13.0211 10.9976 12.6965 11.0517C12.6424 11.0517 12.6424 11.0517 12.5883 11.1058C12.1014 11.2681 12.1014 11.1599 12.2096 11.5386C12.3178 11.8632 12.3178 11.8632 12.6424 11.8091C12.6965 11.755 12.8047 11.755 12.9129 11.7009Z" fill="#F37043"/>
</svg>
