<svg width="22" height="24" viewBox="0 0 22 24" fill="none" xmlns="http://www.w3.org/2000/svg">
<path d="M3.00073 11.1365L4.5696 16.925L8.41057 12.543C6.67942 12.1102 4.35319 11.5152 3.00073 11.1365Z" fill="#F37043"/>
<path d="M19.0138 13.0842L17.4449 7.29565C16.0925 8.64811 14.6318 10.1088 13.5498 11.1366L19.0138 13.0842Z" fill="#F37043"/>
<path d="M10.7368 12.3266C10.7909 12.3266 10.7909 12.3266 10.7909 12.3266C10.845 12.3266 10.8991 12.3266 10.9532 12.3266C11.0073 12.3266 11.0614 12.3266 11.0614 12.3266C11.0614 12.3266 11.0614 12.3266 11.1155 12.3266C11.1155 12.3266 11.1155 12.3266 11.1696 12.3266C11.2237 12.3266 11.2778 12.2725 11.386 12.1643C11.4401 12.1102 11.8729 11.6775 12.2516 11.3529C13.2254 10.4332 14.9024 8.70205 17.2286 6.48402C17.2286 6.48402 17.2286 6.48401 17.1745 6.42992C17.1204 6.37582 17.1204 6.37582 17.0663 6.32172C17.0663 6.32172 17.0122 6.32172 17.0122 6.26762C16.9581 6.26762 16.9041 6.21353 16.85 6.21353C16.7959 6.21353 16.6877 6.15942 16.6336 6.15942C16.5795 6.15942 16.4713 6.15942 16.4172 6.15942L3.54172 9.62172C3.48762 9.62172 3.43356 9.67582 3.37946 9.67582C3.37946 9.67582 3.32538 9.67582 3.32538 9.72992C3.27128 9.78402 3.21714 9.78402 3.21714 9.83811C3.21714 9.83811 3.21715 9.83811 3.16305 9.89221C3.10896 9.94631 3.05488 10.0004 3.05488 10.0545C3.05488 10.0545 3.05488 10.0545 3.05488 10.1086C3.00079 10.1627 3.00073 10.2168 3.00073 10.2709C5.70565 10.9742 8.51878 11.7316 9.97943 12.0561C10.3581 12.2184 10.6286 12.2725 10.7368 12.3266Z" fill="#F37043"/>
<path d="M21.5025 10.812C19.9877 6.43007 18.7975 2.64318 12.468 0.371049C8.30243 -1.14371 4.35325 2.31859 2.7303 4.64482C0.999148 7.13334 -0.191016 11.8399 0.0253771 15.1399C0.241771 18.494 2.13521 23.7415 8.95161 22.9842C19.5549 21.8481 21.9353 17.5743 21.9894 15.0317C21.9894 12.5432 21.773 11.8399 21.5025 10.812ZM19.7713 14.5989C19.7172 14.7071 19.6631 14.7612 19.609 14.8694C19.609 14.8694 19.609 14.8694 19.5549 14.9235C19.5008 14.9776 19.4467 15.0317 19.3926 15.0858C19.3926 15.0858 19.3385 15.0858 19.3385 15.1399C19.2844 15.194 19.1762 15.2481 19.1221 15.2481C19.1221 15.2481 19.068 15.2481 19.068 15.3022C18.9598 15.3563 18.9057 15.4104 18.7975 15.4104L13.55 16.8169L5.92211 18.8727C5.75982 18.9268 5.65166 18.9268 5.48936 18.9268H5.43521C5.32702 18.9268 5.21882 18.9268 5.16472 18.8727C5.11062 18.8727 5.05656 18.8727 5.00247 18.8186C4.89427 18.7645 4.84017 18.7645 4.73197 18.7104C4.73197 18.7104 4.67784 18.7104 4.62374 18.6563C4.51554 18.6022 4.35327 18.494 4.24508 18.3858C4.24508 18.3858 4.24509 18.3858 4.19099 18.3317C4.08279 18.2235 3.9746 18.0612 3.9205 17.8989L3.81226 17.7366V17.6825L2.02706 10.9743L1.97297 10.7038C1.97297 10.6497 1.97297 10.5415 1.97297 10.4874C1.97297 10.4333 1.97297 10.4333 1.97297 10.3792C1.97297 10.3251 1.97296 10.271 2.02706 10.2169C2.02706 10.1629 2.02704 10.1088 2.08114 10.0547C2.08114 10.0006 2.13523 9.94646 2.13523 9.94646C2.13523 9.89236 2.18931 9.83826 2.18931 9.78416C2.18931 9.73006 2.24346 9.73006 2.24346 9.67596C2.29756 9.62187 2.29753 9.56777 2.35163 9.51367L2.40572 9.45957C2.45982 9.40548 2.51394 9.35138 2.56804 9.29728L2.62212 9.24318C2.67622 9.18908 2.73033 9.13498 2.83853 9.13498L2.89262 9.08088C3.00081 9.02678 3.109 8.97268 3.21719 8.97268L16.0926 5.51039C16.0926 5.51039 16.0926 5.51039 16.1467 5.51039C16.2549 5.51039 16.309 5.45629 16.4172 5.45629C16.4713 5.45629 16.5254 5.45629 16.5795 5.45629C16.6336 5.45629 16.6336 5.45629 16.6877 5.45629C16.7418 5.45629 16.85 5.45629 16.9041 5.51039H16.9582C17.0123 5.51039 17.1205 5.56449 17.1746 5.56449C17.1746 5.56449 17.2287 5.56449 17.2287 5.61859C17.2828 5.67269 17.3369 5.67268 17.4451 5.72678C17.4451 5.72678 17.4992 5.72679 17.4992 5.78088C17.5533 5.83498 17.6074 5.88908 17.6615 5.94318L17.7156 5.99727C17.7697 6.05137 17.8237 6.10547 17.8778 6.15957C17.8778 6.15957 17.8779 6.21367 17.932 6.21367C17.9861 6.26777 17.9861 6.37597 18.0402 6.43006L18.1483 6.70056L19.9336 13.4087C19.9336 13.4628 19.9336 13.4629 19.9336 13.517H19.9877V13.7874C19.9877 14.0038 19.9336 14.3284 19.7713 14.5989Z" fill="#F37043"/>
<path d="M12.9007 11.7856C12.6302 12.0561 12.4138 12.2725 12.2515 12.4348C12.1974 12.4889 12.1433 12.543 12.1433 12.543C12.0892 12.5971 12.0351 12.6512 11.981 12.6512C11.9269 12.7053 11.9269 12.7053 11.9269 12.7053C11.8187 12.7594 11.7646 12.8676 11.6564 12.8676L11.6023 12.9217C11.5482 12.9758 11.4941 12.9758 11.44 12.9758H11.3859C11.3318 12.9758 11.2236 13.0299 11.1154 13.0299C11.0072 13.0299 10.899 13.0299 10.7367 12.9758C10.6285 12.9758 10.4122 12.9217 9.3302 12.6512L4.94824 17.6824C5.00234 17.7365 5.00231 17.7365 5.05641 17.7906C5.16461 17.8988 5.32693 17.9529 5.48923 17.9529C5.54332 17.9529 5.65147 17.9529 5.70557 17.9529L13.3335 15.8971L18.581 14.4906C18.6351 14.4906 18.6892 14.4365 18.7433 14.4365L18.7974 14.3824C18.8515 14.3824 18.8515 14.3283 18.8515 14.3283L18.9056 14.2742L18.9597 14.2201C19.0138 14.166 19.0138 14.1119 19.0679 14.0578V14.0037C19.0679 14.0037 19.0679 14.0037 19.0679 13.9496L12.9007 11.7856Z" fill="#F37043"/>
</svg>
