<svg width="23" height="24" viewBox="0 0 23 24" fill="none" xmlns="http://www.w3.org/2000/svg">
<path d="M22.367 11.2591C20.7441 6.71488 19.5539 2.81979 12.9539 0.385366C8.62602 -1.18349 4.51457 2.38701 2.83752 4.82144C1.05227 7.41816 -0.191962 12.287 0.0244317 15.7493C0.240825 19.2116 2.24245 24.6755 9.27524 23.9182C20.3113 22.728 22.7457 18.346 22.7998 15.6952C22.908 13.0444 22.6916 12.287 22.367 11.2591ZM14.09 7.68864C13.7113 7.68864 13.3867 7.68864 13.008 7.68864C12.8457 7.68864 12.6834 7.68865 12.5211 7.74275C12.1966 7.79684 12.0343 8.01324 11.9802 8.33783C11.9802 8.44603 11.9261 8.60831 11.9261 8.71651C11.9261 9.2034 11.9261 9.63619 11.9261 10.1231V10.1772C11.9802 10.1772 11.9802 10.1772 11.9802 10.1772C12.6293 10.1772 13.3326 10.1772 13.9818 10.1772C14.09 10.1772 14.09 10.1772 14.0359 10.2854C13.9818 10.664 13.9277 11.0427 13.8736 11.3673C13.8195 11.6919 13.8195 11.9624 13.7654 12.287C13.7654 12.3952 13.7654 12.3952 13.6572 12.3952C13.0621 12.3952 12.5212 12.3952 11.9261 12.3952H11.8719C11.8719 12.4493 11.8719 12.4493 11.8719 12.5034C11.8719 14.3427 11.8719 16.128 11.8719 17.9673C11.8719 18.0214 11.8719 18.0755 11.8719 18.0755C11.1145 18.0755 10.3572 18.0755 9.54573 18.0755C9.54573 18.0214 9.54573 18.0214 9.54573 17.9673C9.54573 16.128 9.54573 14.2886 9.54573 12.4493V12.3952C9.49163 12.3952 9.49164 12.3952 9.49164 12.3952C8.89656 12.3952 8.30145 12.3952 7.70637 12.3952C7.59818 12.3952 7.5982 12.3952 7.5982 12.3411C7.5982 11.6378 7.5982 10.9886 7.5982 10.2854C7.5982 10.2313 7.59819 10.2313 7.65229 10.2313C8.24737 10.2313 8.84241 10.2313 9.43749 10.2313C9.43749 10.2313 9.49163 10.2313 9.54573 10.2313V10.1772C9.54573 9.58209 9.54573 9.0411 9.54573 8.44602C9.54573 7.95913 9.65393 7.52635 9.81622 7.09356C10.0867 6.49848 10.5195 6.1198 11.1146 5.8493C11.4933 5.68701 11.926 5.63291 12.3047 5.63291C12.7916 5.63291 13.2785 5.6329 13.7654 5.687C13.8736 5.687 13.9277 5.687 14.0359 5.687C14.09 5.687 14.09 5.687 14.09 5.7411C14.09 6.01159 14.09 6.33619 14.09 6.60668C14.09 6.93127 14.09 7.25585 14.09 7.63454C14.1982 7.63454 14.1441 7.68864 14.09 7.68864Z" fill="#F37043"/>
</svg>
