<svg width="541" height="152" viewBox="0 0 541 152" fill="none" xmlns="http://www.w3.org/2000/svg">
<g clip-path="url(#clip0_281_3424)">
<path d="M67.7671 109.271C56.1606 110.809 44.3912 108.073 34.645 101.573C24.8988 95.0721 17.8377 85.2479 14.7729 73.9243C11.7696 62.5829 12.9792 50.5343 18.1767 40.0197C23.3742 29.5051 32.2056 21.2404 43.0285 16.7628L39.6284 4.07324C25.4144 9.42878 13.6996 19.8965 6.76726 33.4362C-0.165086 46.976 -1.81807 62.6175 2.1302 77.3122C6.01255 92.0355 15.2415 104.775 28.0086 113.034C40.7756 121.293 56.1604 124.477 71.1476 121.96L67.7671 109.271Z" fill="white"/>
<path d="M91.4889 99.2054L89.4175 91.3724L85.3339 76.0784L76.814 44.198L95.2797 39.224L97.1359 38.7932C94.4745 34.5735 91.0873 30.8605 87.1314 27.8269L61.1033 34.8179L73.6095 81.5811L82.5783 115.244L84.083 96.9339L96.0812 111.954C96.2179 111.973 91.4889 99.2054 91.4889 99.2054Z" fill="#0D2E48"/>
<path d="M119.745 26.7498C122.932 32.0694 125.359 37.8108 126.955 43.8062L127.366 45.2945C136.765 52.305 143.506 63.5258 146.73 75.6083C152.749 98.1282 146.359 123.625 122.558 130.009L108.88 133.69L109.955 137.607L112.26 146.282L125.939 142.62C158.22 133.945 166.974 101.026 159.158 72.1226C153.667 51.5217 139.617 32.742 119.745 26.7498Z" fill="#0D2E48"/>
<path d="M51.9585 0.76369L55.3585 13.4532C66.9338 11.9736 78.6523 14.7415 88.3499 21.2457C98.0476 27.7499 105.069 37.551 108.118 48.839C110.543 57.9521 110.253 67.5774 107.285 76.5275C104.316 85.4776 98.7976 93.361 91.4108 99.2054L95.026 112.717C105.902 105.691 114.271 95.3853 118.928 83.286C123.584 71.1866 124.288 57.9181 120.937 45.3924C116.969 30.73 107.726 18.0579 94.9902 9.81783C82.2543 1.57771 66.9259 -1.6475 51.9585 0.76369Z" fill="#CC9952"/>
<path d="M106.281 124.526L83.6728 96.033L78.4165 132.006C84.2582 134.126 89.5431 137.548 93.8729 142.013L88.9487 143.325L91.2543 152L105.089 148.279L102.784 139.624L97.8397 140.936C99.2331 134.842 102.136 129.198 106.281 124.526ZM95.6123 141.562L90.0822 125.642L83.5554 128.873L84.2004 97.9716L100.282 124.271L93.0328 124.819L96.1786 141.406L95.6123 141.562Z" fill="#0D2E48"/>
<path d="M200.017 92.6453C210.803 92.6453 216.079 102.104 216.079 111.445C216.079 120.785 211.018 129.598 200.857 129.598H190.051V92.6453H200.017ZM195.64 98.52V123.86H200.857C207.11 123.86 210.432 117.731 210.432 111.503C210.432 105.276 206.954 98.52 200.017 98.52H195.64Z" fill="#F37043"/>
<path d="M277.261 114.617H265.107V123.86H281.541V129.735H259.675V92.6453H281.541V98.52H265.107V108.762H277.261V114.617Z" fill="#F37043"/>
<path d="M333.46 107.802C334.098 108.041 334.751 108.237 335.414 108.39H336.039C338.328 108.731 340.439 109.826 342.038 111.503C343.765 113.514 344.685 116.096 344.618 118.749C344.678 120.145 344.463 121.54 343.985 122.854C343.506 124.167 342.774 125.373 341.831 126.402C340.887 127.432 339.75 128.265 338.484 128.853C337.219 129.442 335.85 129.775 334.457 129.832C331.037 129.832 327.461 127.228 325.136 123.488L329.2 120.061C329.721 121.071 330.466 121.949 331.377 122.628C332.288 123.306 333.341 123.768 334.457 123.977C335.815 123.936 337.101 123.36 338.038 122.374C338.975 121.388 339.485 120.071 339.459 118.71C339.447 117.638 339.06 116.606 338.365 115.792C337.364 114.829 336.098 114.188 334.73 113.951C334.621 113.979 334.507 113.979 334.398 113.951H334.241C332.959 113.606 331.71 113.148 330.509 112.58C329.027 111.545 327.817 110.165 326.983 108.559C326.149 106.953 325.717 105.168 325.722 103.357C325.605 100.532 326.608 97.7746 328.511 95.6873C330.415 93.5999 333.065 92.3515 335.883 92.2144C339.4 92.2144 342.937 94.7993 345.419 98.5395L341.139 101.967C339.615 99.6558 337.72 98.05 335.883 98.05C334.516 98.1061 333.226 98.6978 332.291 99.6977C331.355 100.698 330.849 102.026 330.881 103.396C330.933 104.282 331.194 105.144 331.642 105.91C332.09 106.676 332.713 107.324 333.46 107.802Z" fill="#F37043"/>
<path d="M394.758 92.6453V129.656H389.014V92.6453H394.758Z" fill="#F37043"/>
<path d="M455.901 108.762H470.595V124.212C467.083 127.853 462.282 129.963 457.23 130.087C454.787 130.064 452.372 129.558 450.125 128.598C447.878 127.638 445.842 126.243 444.134 124.493C442.425 122.743 441.079 120.672 440.171 118.399C439.263 116.127 438.811 113.697 438.842 111.249C438.79 106.308 440.697 101.548 444.145 98.0155C447.593 94.4831 452.299 92.467 457.23 92.4102C461.465 92.585 465.549 94.0314 468.954 96.5617L465.749 101.105C463.273 99.3588 460.352 98.3537 457.327 98.2066C453.922 98.2633 450.677 99.6655 448.298 102.108C445.92 104.55 444.6 107.836 444.626 111.249C444.6 114.66 445.92 117.943 448.299 120.382C450.679 122.822 453.924 124.219 457.327 124.271C460.073 124.251 462.737 123.33 464.909 121.647V115.048C464.909 114.773 464.909 115.048 464.909 114.617H455.999L455.901 108.762Z" fill="#F37043"/>
<path d="M519.935 92.6453L535.372 117.143V92.6453H541V129.656H536.682L521.303 105.374V129.656H515.773V92.6453H519.935Z" fill="#F37043"/>
<path d="M213.929 21.9714C207.6 21.9714 201.529 24.4899 197.052 28.9734C192.574 33.4569 190.056 39.5385 190.051 45.8817C190.056 52.2268 192.573 58.3105 197.05 62.7971C201.527 67.2837 207.598 69.8065 213.929 69.8117C220.261 69.8065 226.331 67.2837 230.808 62.7971C235.285 58.3105 237.803 52.2268 237.808 45.8817C237.803 39.5385 235.285 33.4569 230.807 28.9734C226.33 24.4899 220.259 21.9714 213.929 21.9714ZM213.929 67.1289C208.306 67.1289 202.914 64.8903 198.938 60.9057C194.961 56.9211 192.728 51.5168 192.728 45.8817C192.728 40.2467 194.961 34.8424 198.938 30.8578C202.914 26.8732 208.306 24.6346 213.929 24.6346C219.552 24.6346 224.945 26.8732 228.921 30.8578C232.897 34.8424 235.131 40.2467 235.131 45.8817C235.139 48.6769 234.596 51.4461 233.534 54.0307C232.472 56.6153 230.912 58.9645 228.942 60.9437C226.973 62.9229 224.633 64.4932 222.057 65.5647C219.48 66.6361 216.718 67.1876 213.929 67.1876V67.1289Z" fill="#0D2E48"/>
<path d="M348.076 24.6349C352.773 24.6194 357.339 26.1772 361.051 29.0606L363.005 27.2002C358.797 23.806 353.556 21.9605 348.154 21.9717C341.825 21.9717 335.754 24.4902 331.276 28.9737C326.799 33.4572 324.281 39.5388 324.276 45.882C324.268 48.2928 324.63 50.6903 325.35 52.9905H280.212V25.105H305.302V22.4417H277.535V52.9905H246.504V25.105H271.594V22.4417H243.827V69.4399H246.504V55.7321H277.535V69.4399H280.212V55.7321H326.386C328.269 59.9403 331.325 63.5136 335.187 66.022C339.049 68.5303 343.552 69.8668 348.154 69.8707C353.312 69.8877 358.334 68.2169 362.458 65.1122L361.051 62.8406C357.348 65.6743 352.814 67.2025 348.154 67.1879C345.37 67.1879 342.613 66.6384 340.041 65.5706C337.469 64.5028 335.131 62.9378 333.163 60.9648C331.194 58.9918 329.632 56.6496 328.567 54.0717C327.501 51.4939 326.953 48.731 326.953 45.9408C326.937 40.3091 329.153 34.9016 333.114 30.9065C337.075 26.9115 342.457 24.6557 348.076 24.6349Z" fill="#0D2E48"/>
<path d="M431.397 63.5259L404.099 22.4417H402.028V52.9905H370.997V25.1049H396.087V22.4417H368.32V69.3419H396.087V66.6787H370.997V55.6733H402.028V69.3419H404.705V28.2577L431.925 69.3419H434.074V22.4417H431.397V63.5259Z" fill="#0D2E48"/>
<path d="M442.027 25.1049H455.256V69.3419H457.933V25.1049H471.182V22.4417H442.027V25.1049Z" fill="#0D2E48"/>
<path d="M540.922 39.7722C540.922 26.3582 533.457 22.4809 521.381 22.4809H510.732V53.0296H479.701V25.1049H504.791V22.4417H477.024V69.4399H504.791V66.757H479.701V55.7712H510.732V69.4791H513.409V55.7712H521.909C522.443 55.8018 522.978 55.8018 523.511 55.7712L537.19 69.4791H540.473L526.618 55.4579C533.418 54.0871 540.922 50.2489 540.922 39.7722ZM521.929 53.0101H513.37V25.1049H521.342C533.184 25.1049 538.264 29.0214 538.264 39.7331C538.342 51.8547 527.459 52.9709 522.007 52.9709L521.929 53.0101Z" fill="#0D2E48"/>
</g>
<defs>
<clipPath id="clip0_281_3424">
<rect width="541" height="152" fill="white"/>
</clipPath>
</defs>
</svg>
