<svg width="25" height="24" viewBox="0 0 25 24" fill="none" xmlns="http://www.w3.org/2000/svg">
<path d="M21.3438 5.53283C18.9635 2.9902 14.5275 0.609876 11.4438 0.122991C8.52254 -0.309796 3.11266 0.231175 1.32741 4.50494C-1.4316 10.9426 0.624162 14.5132 2.84219 18.7869C3.43728 19.7066 3.81598 20.4099 5.76352 22.141C7.71106 23.9263 12.634 25.1164 21.0192 17.8672C26.375 13.2148 23.7241 8.07545 21.3438 5.53283ZM14.0405 17.8672H8.95527C7.00773 17.8672 5.43888 16.2984 5.43888 14.3509V8.94102C5.43888 6.99348 7.00773 5.42462 8.95527 5.42462H14.0405C15.9881 5.42462 17.5569 6.99348 17.5569 8.94102V14.3509C17.5569 16.2984 15.9881 17.8672 14.0405 17.8672Z" fill="#F37043"/>
<path d="M15.8257 7.10161C15.3389 6.61473 14.6897 6.34424 13.9864 6.34424H8.90113C8.19785 6.34424 7.54865 6.61473 7.06177 7.10161C6.57488 7.5885 6.30444 8.23767 6.30444 8.94095V14.3508C6.30444 15.0541 6.57488 15.7032 7.06177 16.1901C7.54865 16.677 8.19785 16.9475 8.90113 16.9475H13.9864C14.6897 16.9475 15.3389 16.677 15.8257 16.1901C16.3126 15.7032 16.5831 15.0541 16.5831 14.3508V8.94095C16.6372 8.29177 16.3126 7.6426 15.8257 7.10161ZM11.552 14.9459C9.71261 14.9459 8.19789 13.4852 8.19789 11.6459C8.19789 9.80653 9.65853 8.29177 11.4979 8.29177C13.3372 8.29177 14.8519 9.75243 14.8519 11.5918C14.8519 13.4311 13.3913 14.9459 11.552 14.9459ZM14.906 8.99505C14.4732 8.99505 14.0946 8.67046 14.0946 8.18358C14.0946 7.75079 14.4191 7.3721 14.906 7.3721C15.3388 7.3721 15.7175 7.69669 15.7175 8.18358C15.6634 8.67046 15.3388 8.99505 14.906 8.99505Z" fill="#F37043"/>
<path d="M11.4977 9.42773C10.3075 9.42773 9.33374 10.4015 9.33374 11.6458C9.33374 12.8359 10.3075 13.8097 11.5518 13.8097C12.7419 13.8097 13.7157 12.8359 13.7157 11.5917C13.6616 10.4015 12.6878 9.42773 11.4977 9.42773Z" fill="#F37043"/>
</svg>
