<svg width="25" height="24" viewBox="0 0 25 24" fill="none" xmlns="http://www.w3.org/2000/svg">
<path d="M23.9088 6.17249C22.8809 1.62822 17.6875 0.113473 14.7121 0.00527598C11.5744 -0.102921 6.81376 1.46593 4.00065 3.52167C1.18753 5.57741 -2.32886 10.1758 2.10721 15.7479C9.0318 24.4036 14.0629 24.1331 16.335 22.7266C18.6072 21.32 19.0941 20.779 19.7973 19.9135C22.7728 16.1266 25.4236 12.9889 23.9088 6.17249ZM9.89732 16.2889H7.6793V9.09379H9.89732V16.2889ZM8.76126 8.12003C8.05799 8.12003 7.46289 7.52495 7.46289 6.82167C7.46289 6.11839 8.05799 5.52332 8.76126 5.52332C9.46454 5.52332 10.0596 6.11839 10.0596 6.82167C10.0596 7.52495 9.46454 8.12003 8.76126 8.12003ZM18.2826 16.2889H16.0645V12.7725C16.0645 11.961 16.0646 10.8791 14.8744 10.8791C13.6842 10.8791 13.5219 11.7987 13.5219 12.7184V16.2889H11.3039V9.09379H13.4679V10.0676H13.5219C13.8465 9.52659 14.5498 8.93151 15.6318 8.93151C17.9039 8.93151 18.3367 10.4463 18.3367 12.3397V16.2889H18.2826Z" fill="#F37043"/>
</svg>
