<svg width="190" height="53" viewBox="0 0 190 53" fill="none" xmlns="http://www.w3.org/2000/svg">
<g clip-path="url(#clip0_262_189)">
<path d="M23.7999 38.1009C19.7237 38.6371 15.5902 37.6834 12.1674 35.4167C8.74447 33.15 6.26462 29.7245 5.18824 25.7761C4.13349 21.8216 4.55831 17.6204 6.38368 13.9541C8.20904 10.2879 11.3107 7.40608 15.1116 5.84481L13.9175 1.42017C8.92557 3.28756 4.8113 6.93749 2.37665 11.6586C-0.0580004 16.3797 -0.638532 21.8336 0.748106 26.9574C2.11159 32.0912 5.35282 36.5333 9.83663 39.4131C14.3204 42.293 19.7236 43.403 24.9871 42.5256L23.7999 38.1009Z" fill="#BDBEC1"/>
<path d="M32.131 34.5914L31.4035 31.8602L29.9693 26.5274L26.9771 15.4112L33.4623 13.6769L34.1142 13.5266C33.1795 12.0553 31.9899 10.7607 30.6006 9.70288L21.4595 12.1405L25.8517 28.4461L29.0015 40.1837L29.53 33.7994L33.7438 39.0366C33.7918 39.0434 32.131 34.5914 32.131 34.5914Z" fill="#0D2E48"/>
<path d="M42.0545 9.32715C43.1739 11.182 44.0263 13.1839 44.5867 15.2744L44.731 15.7934C48.0319 18.2379 50.3995 22.1504 51.5319 26.3633C53.6456 34.2157 51.4014 43.1059 43.0426 45.3319L38.2388 46.6156L38.6163 47.9812L39.426 51.0061L44.2299 49.7292C55.567 46.7044 58.6415 35.2263 55.8964 25.1479C53.968 17.9647 49.0338 11.4166 42.0545 9.32715Z" fill="#0D2E48"/>
<path d="M18.2478 0.26629L19.4419 4.69093C23.5072 4.17501 27.6227 5.14013 31.0285 7.40804C34.4344 9.67594 36.9004 13.0934 37.9711 17.0294C38.8229 20.207 38.7211 23.5632 37.6784 26.6839C36.6358 29.8047 34.6978 32.5535 32.1035 34.5913L33.3732 39.3028C37.1929 36.8527 40.1321 33.2594 41.7675 29.0405C43.4029 24.8217 43.65 20.1951 42.4731 15.8276C41.0795 10.715 37.8335 6.29652 33.3606 3.42332C28.8877 0.550125 23.5044 -0.574455 18.2478 0.26629Z" fill="#CC9952"/>
<path d="M37.3262 43.42L29.3861 33.4851L27.54 46.0284C29.5916 46.7676 31.4477 47.9606 32.9684 49.5176L31.2389 49.9751L32.0487 52.9999L36.9075 51.7026L36.0978 48.6845L34.3615 49.142C34.8509 47.0172 35.8705 45.0492 37.3262 43.42ZM33.5792 49.3605L31.637 43.8092L29.3448 44.9359L29.5714 34.1611L35.2193 43.3313L32.6733 43.5225L33.7781 49.3059L33.5792 49.3605Z" fill="#0D2E48"/>
<path d="M70.2464 32.304C74.0346 32.304 75.8875 35.6019 75.8875 38.859C75.8875 42.116 74.11 45.1886 70.5414 45.1886H66.7463V32.304H70.2464ZM68.7091 34.3524V43.188H70.5414C72.7375 43.188 73.9042 41.0508 73.9042 38.8795C73.9042 36.7081 72.6826 34.3524 70.2464 34.3524H68.7091Z" fill="#F37043"/>
<path d="M97.3746 39.9651H93.1061V43.188H98.8775V45.2364H91.1982V32.304H98.8775V34.3524H93.1061V37.9235H97.3746V39.9651Z" fill="#F37043"/>
<path d="M117.111 37.589C117.335 37.6723 117.565 37.7407 117.798 37.7939H118.017C118.821 37.9128 119.563 38.2948 120.124 38.8795C120.731 39.5807 121.054 40.4811 121.03 41.4059C121.051 41.8929 120.976 42.3793 120.808 42.8372C120.64 43.2952 120.383 43.7156 120.051 44.0746C119.72 44.4335 119.32 44.724 118.876 44.9292C118.432 45.1344 117.951 45.2505 117.461 45.2707C116.261 45.2707 115.005 44.3625 114.188 43.0583L115.615 41.8634C115.798 42.2157 116.06 42.5218 116.38 42.7585C116.7 42.9951 117.07 43.156 117.461 43.229C117.938 43.2148 118.39 43.0138 118.719 42.6699C119.048 42.326 119.227 41.8669 119.218 41.3923C119.214 41.0188 119.078 40.6586 118.834 40.3749C118.482 40.039 118.038 39.8155 117.558 39.733C117.519 39.7429 117.479 39.7429 117.441 39.733H117.386C116.936 39.6129 116.497 39.4529 116.075 39.2551C115.555 38.8941 115.13 38.413 114.837 37.8529C114.544 37.2928 114.392 36.6704 114.394 36.039C114.353 35.0539 114.705 34.0926 115.374 33.3648C116.042 32.6369 116.973 32.2016 117.962 32.1538C119.198 32.1538 120.44 33.0551 121.311 34.3593L119.808 35.5542C119.273 34.7485 118.608 34.1886 117.962 34.1886C117.482 34.2082 117.029 34.4145 116.701 34.7631C116.372 35.1118 116.194 35.5748 116.206 36.0527C116.224 36.3617 116.316 36.6621 116.473 36.9292C116.63 37.1962 116.849 37.4223 117.111 37.589Z" fill="#F37043"/>
<path d="M138.64 32.304V45.2091H136.622V32.304H138.64Z" fill="#F37043"/>
<path d="M160.113 37.9234H165.274V43.3108C164.04 44.5803 162.354 45.316 160.58 45.3593C159.722 45.3512 158.874 45.1748 158.085 44.8401C157.295 44.5054 156.58 44.019 155.981 43.4087C155.381 42.7985 154.908 42.0764 154.589 41.284C154.27 40.4915 154.111 39.6442 154.122 38.7906C154.104 37.0677 154.774 35.4081 155.985 34.1764C157.195 32.9447 158.848 32.2417 160.58 32.2219C162.067 32.2829 163.502 32.7872 164.697 33.6695L163.572 35.2536C162.702 34.6448 161.676 34.2943 160.614 34.243C159.418 34.2628 158.279 34.7517 157.443 35.6034C156.608 36.4551 156.144 37.6006 156.153 38.7906C156.144 39.98 156.608 41.1247 157.444 41.9753C158.279 42.8259 159.419 43.3133 160.614 43.3313C161.578 43.3245 162.514 43.003 163.277 42.4163V40.1152C163.277 40.0197 163.277 40.1152 163.277 39.965H160.148L160.113 37.9234Z" fill="#F37043"/>
<path d="M182.602 32.304L188.023 40.846V32.304H190V45.2091H188.483L183.082 36.7422V45.2091H181.14V32.304H182.602Z" fill="#F37043"/>
<path d="M75.1325 7.66113C72.9095 7.66113 70.7776 8.53929 69.2051 10.1026C67.6326 11.6659 66.7482 13.7865 66.7463 15.9983C66.7482 18.2107 67.6322 20.332 69.2046 21.8964C70.7769 23.4608 72.9089 24.3405 75.1325 24.3423C77.3561 24.3405 79.4881 23.4608 81.0604 21.8964C82.6328 20.332 83.5169 18.2107 83.5187 15.9983C83.5169 13.7865 82.6326 11.6659 81.0601 10.1026C79.4876 8.53929 77.3555 7.66113 75.1325 7.66113ZM75.1325 23.4068C73.1577 23.4068 71.2638 22.6263 69.8674 21.2369C68.471 19.8475 67.6866 17.9631 67.6866 15.9983C67.6866 14.0334 68.471 12.149 69.8674 10.7597C71.2638 9.37031 73.1577 8.58975 75.1325 8.58975C77.1073 8.58975 79.0012 9.37031 80.3976 10.7597C81.794 12.149 82.5786 14.0334 82.5786 15.9983C82.5813 16.9729 82.3906 17.9385 82.0176 18.8397C81.6446 19.7409 81.0967 20.56 80.405 21.2502C79.7133 21.9403 78.8916 22.4878 77.9868 22.8614C77.0821 23.235 76.1121 23.4273 75.1325 23.4273V23.4068Z" fill="#0D2E48"/>
<path d="M122.245 8.58977C123.894 8.58436 125.498 9.12752 126.802 10.1329L127.488 9.48425C126.01 8.30072 124.169 7.65723 122.272 7.66115C120.049 7.66115 117.917 8.53931 116.345 10.1026C114.772 11.666 113.888 13.7865 113.886 15.9983C113.883 16.8389 114.011 17.6749 114.263 18.4769H98.4107V8.75366H107.222V7.82502H97.4704V18.4769H86.5726V8.75366H95.3842V7.82502H85.6323V24.2125H86.5726V19.4329H97.4704V24.2125H98.4107V19.4329H114.627C115.288 20.9002 116.362 22.1462 117.718 23.0208C119.074 23.8954 120.656 24.3614 122.272 24.3628C124.084 24.3687 125.847 23.7861 127.296 22.7035L126.802 21.9115C125.501 22.8995 123.909 23.4324 122.272 23.4273C121.294 23.4273 120.326 23.2357 119.423 22.8634C118.519 22.4911 117.699 21.9454 117.007 21.2574C116.316 20.5695 115.767 19.7528 115.393 18.8539C115.019 17.9551 114.826 16.9917 114.826 16.0188C114.821 14.0551 115.599 12.1696 116.99 10.7766C118.381 9.38356 120.271 8.597 122.245 8.58977Z" fill="#0D2E48"/>
<path d="M151.507 22.1504L141.92 7.82495H141.193V18.4768H130.295V8.75358H139.106V7.82495H129.354V24.1783H139.106V23.2497H130.295V19.4123H141.193V24.1783H142.133V9.85291L151.692 24.1783H152.447V7.82495H151.507V22.1504Z" fill="#0D2E48"/>
<path d="M155.24 8.75358H159.887V24.1783H160.827V8.75358H165.48V7.82495H155.24V8.75358Z" fill="#0D2E48"/>
<path d="M189.973 13.8679C189.973 9.19058 187.351 7.83862 183.11 7.83862H179.37V18.4905H168.472V8.75359H177.284V7.82495H167.532V24.2125H177.284V23.277H168.472V19.4465H179.37V24.2262H180.31V19.4465H183.295C183.483 19.4571 183.671 19.4571 183.858 19.4465L188.662 24.2262H189.815L184.949 19.3372C187.337 18.8592 189.973 17.5209 189.973 13.8679ZM183.302 18.4837H180.296V8.75359H183.096C187.255 8.75359 189.039 10.1192 189.039 13.8542C189.067 18.0808 185.244 18.47 183.33 18.47L183.302 18.4837Z" fill="#0D2E48"/>
</g>
<defs>
<clipPath id="clip0_262_189">
<rect width="190" height="53" fill="white"/>
</clipPath>
</defs>
</svg>
