<svg width="42" height="42" viewBox="0 0 42 42" fill="none" xmlns="http://www.w3.org/2000/svg">
<g clip-path="url(#clip0_262_577)">
<path d="M0.00472765 41.804V37.8684C0.301209 37.5289 0.702895 37.615 1.08067 37.6102C1.6832 37.6102 1.68797 37.6102 1.68797 37.0268V23.4651C1.69962 23.3759 1.67904 23.2855 1.62995 23.2101C1.58086 23.1347 1.50648 23.0793 1.42019 23.0539C1.08168 22.9336 0.775818 22.7361 0.526821 22.4772C0.277824 22.2182 0.0925242 21.9049 -0.0144043 21.5619V20.4142C0.0747765 20.1041 0.231105 19.8174 0.443493 19.5744C0.655881 19.3314 0.91913 19.1382 1.21456 19.0083C1.37149 18.9636 1.50668 18.8631 1.59474 18.7258C1.68279 18.5884 1.71765 18.4236 1.69276 18.2623C1.69276 13.8916 1.69276 9.5257 1.69276 5.15498C1.69276 4.37074 1.69275 4.36594 0.922857 4.36594C0.760645 4.39572 0.593744 4.38747 0.435262 4.34184C0.27678 4.2962 0.131036 4.21442 0.00949969 4.10294C0.00949969 2.82137 0.00949969 1.53981 0.00949969 0.277369C0.00949969 0.0717448 0.0573187 0.0239258 0.262943 0.0239258C1.54451 0.0239258 2.83087 0.0239258 4.11243 0.0239258C4.45195 0.320408 4.37065 0.717306 4.37544 1.09508C4.37544 1.70717 4.37544 1.70717 4.9971 1.70717H18.5205C18.6096 1.71736 18.6994 1.69554 18.7738 1.6456C18.8483 1.59567 18.9026 1.52089 18.927 1.43461C19.0508 1.10002 19.2504 0.798583 19.51 0.55387C19.7697 0.309158 20.0824 0.127788 20.4237 0.0239258H21.5714C21.8808 0.112001 22.1668 0.267433 22.4091 0.479079C22.6513 0.690726 22.8437 0.953344 22.9725 1.24811C23.0133 1.40541 23.1115 1.54175 23.2478 1.63025C23.3841 1.71876 23.5486 1.75302 23.7089 1.7263C28.137 1.7263 32.5667 1.7263 36.998 1.7263C37.6149 1.7263 37.6101 1.7263 37.6149 1.10943C37.6149 0.736433 37.5384 0.334758 37.8779 0.0430577H41.8134C41.9588 0.225337 42.0289 0.456301 42.0095 0.688626C42.0095 1.54938 42.0095 2.41013 42.0095 3.27088C42.0095 4.3803 42.0095 4.39464 40.8953 4.39942C40.3071 4.39942 40.2976 4.39943 40.2976 4.99239C40.2976 9.43006 40.2976 13.8677 40.2976 18.3054C40.276 18.4656 40.3123 18.6283 40.3999 18.7642C40.4876 18.9001 40.6209 19.0002 40.7758 19.0466C41.1595 19.2027 41.4856 19.4733 41.7099 19.8217C41.9341 20.17 42.0454 20.579 42.0286 20.9928C42.0559 21.4129 41.9512 21.8309 41.7291 22.1885C41.5071 22.5461 41.1787 22.8252 40.7901 22.9869C40.6329 23.039 40.499 23.1446 40.4116 23.2853C40.3242 23.426 40.2889 23.5928 40.3119 23.7568C40.3119 28.0893 40.3119 32.417 40.3119 36.7446C40.3119 37.7297 40.2402 37.6389 41.1822 37.6437C41.2634 37.6389 41.3449 37.6389 41.4261 37.6437C41.8565 37.6771 42.0191 37.8349 42.0238 38.2605C42.0238 39.3125 42.0238 40.3598 42.0238 41.4118C42.0238 41.89 41.8756 42.0191 41.4022 42.0239H38.7817C37.6484 42.0239 37.6436 42.0239 37.634 40.881C37.634 40.3168 37.634 40.3072 37.0602 40.3072C32.6082 40.3072 28.1562 40.3072 23.7041 40.3072C23.5518 40.2888 23.3977 40.3241 23.2685 40.407C23.1394 40.4899 23.0431 40.6153 22.9964 40.7615C22.8398 41.1518 22.5654 41.4836 22.2115 41.7107C21.8575 41.9379 21.4415 42.049 21.0215 42.0287C20.602 42.0526 20.1856 41.9446 19.8306 41.7199C19.4756 41.4952 19.1997 41.1651 19.0417 40.7758C18.9937 40.622 18.8932 40.4899 18.7577 40.4025C18.6223 40.3151 18.4605 40.278 18.3005 40.2976C13.9967 40.2976 9.72167 40.2976 5.43703 40.2976C4.42804 40.2976 4.42804 40.2976 4.39457 41.3066V41.3497C4.36588 41.8279 4.20806 42.0096 3.71552 42.0096H0.640723C0.410113 42.0258 0.182178 41.9521 0.00472765 41.804ZM2.65393 11.6011C2.65393 13.8438 2.65393 16.0818 2.65393 18.3197C2.63508 18.4666 2.66766 18.6154 2.74611 18.7409C2.82457 18.8664 2.94408 18.9609 3.08431 19.0083C3.46695 19.1683 3.79228 19.4402 4.01758 19.7884C4.24288 20.1366 4.35762 20.5448 4.34675 20.9594C4.37148 21.374 4.26825 21.7863 4.05101 22.1404C3.83377 22.4945 3.513 22.7733 3.13212 22.9391C2.97006 22.999 2.83379 23.1132 2.74658 23.2623C2.65937 23.4115 2.62662 23.5862 2.65393 23.7568C2.65393 28.1562 2.65393 32.554 2.65393 36.9503C2.65393 37.0459 2.65393 37.1415 2.65393 37.2372C2.65393 37.4954 2.76392 37.615 3.02215 37.6054C3.14648 37.6054 3.2708 37.6054 3.39035 37.6054C4.25111 37.6054 4.34675 37.7202 4.34675 38.5618V38.7292C4.34675 39.2982 4.34675 39.3126 4.9158 39.3126C9.37897 39.3126 13.831 39.3126 18.2718 39.3126C18.4238 39.3338 18.5785 39.3021 18.71 39.2229C18.8414 39.1437 18.9417 39.0217 18.9939 38.8774C19.1555 38.4953 19.4286 38.1708 19.7775 37.9464C20.1265 37.722 20.535 37.6082 20.9497 37.6197C21.3638 37.5985 21.7745 37.7043 22.1266 37.9232C22.4788 38.142 22.7556 38.4633 22.9199 38.8439C22.9756 39.0017 23.084 39.1355 23.2269 39.2226C23.3698 39.3097 23.5384 39.3449 23.7041 39.3221C28.1195 39.3221 32.5316 39.3221 36.9406 39.3221C37.5862 39.3221 37.5862 39.3221 37.5862 38.6526C37.5862 37.6962 37.6723 37.6102 38.643 37.6102H38.7291C39.2886 37.6102 39.3029 37.6102 39.3029 37.0316C39.3029 32.5684 39.3029 28.1164 39.3029 23.6755C39.3224 23.5231 39.2888 23.3686 39.2078 23.238C39.1268 23.1074 39.0034 23.0086 38.8582 22.9582C38.4771 22.7949 38.1541 22.5204 37.9314 22.1706C37.7088 21.8209 37.5968 21.412 37.6101 20.9976C37.5906 20.5833 37.6977 20.1728 37.9173 19.8208C38.1368 19.4689 38.4583 19.1921 38.8391 19.0275C38.9994 18.974 39.1355 18.8653 39.2231 18.7208C39.3107 18.5763 39.3441 18.4053 39.3173 18.2384C39.3173 13.9251 39.3173 9.61017 39.3173 5.29365C39.3173 4.26074 39.4033 4.37551 38.3943 4.36594C37.7775 4.36594 37.6149 4.19381 37.6005 3.5865V3.29957C37.6005 2.65401 37.6005 2.65401 36.9741 2.65401C32.5524 2.65401 28.1275 2.65401 23.6994 2.65401C23.541 2.63098 23.3795 2.66306 23.2419 2.74489C23.1044 2.82673 22.9992 2.95334 22.9438 3.10351C22.7817 3.48485 22.5072 3.80771 22.1569 4.029C21.8066 4.25029 21.3972 4.35949 20.9832 4.34204C20.5687 4.35912 20.1588 4.24983 19.8078 4.02865C19.4568 3.80746 19.1813 3.48482 19.0178 3.10351C18.9625 2.95334 18.8572 2.82673 18.7197 2.74489C18.5821 2.66306 18.4206 2.63098 18.2623 2.65401C13.8246 2.65401 9.38694 2.65401 4.94928 2.65401C4.37544 2.65401 4.36587 2.654 4.36109 3.21827C4.36109 4.32291 4.32284 4.35638 3.19908 4.36594C2.66828 4.36594 2.64915 4.38986 2.64915 4.92544C2.64437 7.14905 2.64437 9.37745 2.64437 11.6011H2.65393ZM0.937202 2.14712V3.0031C0.928113 3.05069 0.930646 3.09977 0.944572 3.14618C0.958497 3.19259 0.983412 3.23496 1.0172 3.26969C1.05099 3.30442 1.09265 3.33048 1.13866 3.34568C1.18468 3.36087 1.23368 3.36474 1.2815 3.35696H2.99346C3.22299 3.35696 3.35687 3.25654 3.35687 3.01744V1.26245C3.36245 1.218 3.35771 1.17287 3.34303 1.13054C3.32834 1.08822 3.30411 1.04984 3.2722 1.01839C3.24029 0.986946 3.20157 0.963271 3.15903 0.949206C3.1165 0.93514 3.07128 0.931059 3.02692 0.937283H1.27195C1.02807 0.937283 0.93243 1.05683 0.93243 1.29114C0.93243 1.52546 0.937202 1.8602 0.937202 2.14712ZM39.8576 0.937283C39.5707 0.937283 39.2838 0.937283 39.0016 0.937283C38.7195 0.937283 38.6095 1.06639 38.6095 1.33418C38.6095 1.86498 38.6095 2.39578 38.6095 2.92658C38.6095 3.23741 38.7339 3.3713 39.0447 3.36651C39.5229 3.36651 40.0011 3.36651 40.5127 3.36651C41.0244 3.36651 41.034 3.32826 41.0388 2.81659V2.12322C41.0388 0.932506 41.0388 0.932501 39.8576 0.937283ZM0.937202 39.8338V40.6945C0.937202 40.9336 1.04241 41.0388 1.2815 41.0388H2.99346C3.22777 41.0388 3.35687 40.9432 3.35687 40.7041V38.9491C3.36228 38.9045 3.35746 38.8592 3.34279 38.8167C3.32812 38.7742 3.30398 38.7356 3.27219 38.7039C3.2404 38.6721 3.2018 38.6479 3.15931 38.6333C3.11682 38.6186 3.07155 38.6138 3.02692 38.6192H1.27195C1.02807 38.6192 0.93242 38.7483 0.937202 38.9778V39.8338ZM39.8337 41.0388H40.6897C40.9288 41.0388 41.0388 40.9336 41.0388 40.6945C41.0388 40.1207 41.0388 39.5516 41.0388 38.9778C41.0388 38.7148 40.9096 38.6144 40.661 38.6144H38.9873C38.9365 38.6062 38.8844 38.6101 38.8354 38.6259C38.7863 38.6418 38.7418 38.669 38.7054 38.7054C38.6689 38.7419 38.6417 38.7864 38.6259 38.8354C38.61 38.8845 38.6061 38.9365 38.6143 38.9874C38.6143 39.5469 38.6143 40.1016 38.6143 40.6611C38.6143 40.9432 38.753 41.0484 39.0208 41.0388C39.2886 41.0293 39.5611 41.0388 39.8337 41.0388ZM2.16617 22.1931C2.32667 22.1991 2.48669 22.172 2.63621 22.1133C2.78573 22.0547 2.92152 21.9658 3.03509 21.8522C3.14866 21.7386 3.23756 21.6028 3.29622 21.4533C3.35489 21.3038 3.38204 21.1438 3.37601 20.9833C3.38117 20.826 3.35449 20.6694 3.29757 20.5228C3.24064 20.3761 3.15465 20.2425 3.04477 20.1299C2.93488 20.0174 2.80338 19.9282 2.65814 19.8677C2.51291 19.8073 2.35695 19.7768 2.19965 19.7782C2.03884 19.7725 1.87852 19.7991 1.72821 19.8565C1.5779 19.9139 1.44067 20.001 1.32469 20.1125C1.2087 20.2241 1.11631 20.3578 1.05303 20.5057C0.989751 20.6536 0.956872 20.8128 0.956334 20.9737C0.952447 21.1341 0.981017 21.2936 1.04032 21.4427C1.09962 21.5918 1.18843 21.7273 1.30142 21.8412C1.41442 21.9551 1.54927 22.045 1.69787 22.1054C1.84647 22.1659 2.00576 22.1957 2.16617 22.1931ZM39.8289 22.1931C39.9895 22.197 40.1493 22.1684 40.2986 22.1092C40.4479 22.0499 40.5838 21.9612 40.698 21.8483C40.8123 21.7354 40.9026 21.6005 40.9637 21.4519C41.0247 21.3033 41.0551 21.1439 41.0531 20.9833C41.0538 20.8228 41.0223 20.6638 40.9605 20.5158C40.8987 20.3677 40.8078 20.2335 40.6932 20.1211C40.5786 20.0088 40.4427 19.9206 40.2934 19.8617C40.1441 19.8028 39.9846 19.7744 39.8241 19.7782C39.6667 19.7743 39.5101 19.8024 39.3639 19.8608C39.2176 19.9193 39.0848 20.0068 38.9734 20.1182C38.8621 20.2296 38.7745 20.3624 38.716 20.5087C38.6576 20.6549 38.6295 20.8115 38.6334 20.9689C38.6256 21.1277 38.6503 21.2864 38.706 21.4353C38.7618 21.5842 38.8473 21.7202 38.9575 21.8348C39.0677 21.9495 39.2001 22.0404 39.3466 22.102C39.4932 22.1636 39.6508 22.1946 39.8098 22.1931H39.8289ZM22.2122 2.14233C22.2129 1.98187 22.1814 1.82289 22.1195 1.6748C22.0577 1.52672 21.9668 1.39255 21.8522 1.2802C21.7377 1.16785 21.6017 1.07961 21.4525 1.02071C21.3032 0.961814 21.1436 0.933445 20.9832 0.937283C20.8223 0.939051 20.6633 0.97316 20.5158 1.0376C20.3684 1.10204 20.2353 1.19548 20.1247 1.31236C20.0141 1.42925 19.928 1.5672 19.8718 1.718C19.8156 1.8688 19.7902 2.02936 19.7973 2.19016C19.7965 2.34726 19.8276 2.50291 19.8887 2.64766C19.9497 2.79241 20.0395 2.92328 20.1526 3.03234C20.2657 3.1414 20.3997 3.2264 20.5466 3.28219C20.6935 3.33799 20.8501 3.36342 21.0071 3.35696C21.166 3.3597 21.3239 3.32993 21.4709 3.26948C21.6179 3.20904 21.751 3.1192 21.8621 3.00546C21.9731 2.89172 22.0598 2.75649 22.1167 2.60807C22.1736 2.45964 22.1996 2.30116 22.193 2.14233H22.2122ZM22.2122 39.8242C22.2183 39.6633 22.1909 39.5029 22.132 39.353C22.073 39.2032 21.9837 39.0671 21.8696 38.9535C21.7555 38.8399 21.6191 38.7511 21.4691 38.6927C21.319 38.6343 21.1584 38.6077 20.9975 38.6144C20.8405 38.6105 20.6843 38.6383 20.5381 38.6961C20.392 38.7538 20.259 38.8404 20.1471 38.9506C20.0351 39.0607 19.9464 39.1923 19.8863 39.3375C19.8262 39.4827 19.7959 39.6384 19.7973 39.7955C19.7915 39.9561 19.8181 40.1162 19.8756 40.2662C19.9331 40.4163 20.0202 40.5532 20.1318 40.6688C20.2434 40.7844 20.3772 40.8764 20.5251 40.9391C20.673 41.0019 20.8321 41.0342 20.9928 41.0341C21.1512 41.0341 21.3081 41.0027 21.4543 40.9418C21.6006 40.8809 21.7333 40.7916 21.8449 40.6791C21.9565 40.5667 22.0447 40.4332 22.1044 40.2865C22.1642 40.1398 22.1943 39.9827 22.193 39.8242H22.2122Z" fill="white"/>
<path d="M10.9938 35.028C9.32969 35.028 7.64645 35.028 5.99667 35.028C5.84866 35.0068 5.69802 35.0409 5.57361 35.1238C5.4492 35.2068 5.35975 35.3327 5.32241 35.4775C5.22465 35.7321 5.11289 35.9812 4.98767 36.2235C4.96328 36.2836 4.92691 36.3381 4.88077 36.3837C4.83464 36.4294 4.7797 36.4651 4.71931 36.4888C4.65892 36.5125 4.59433 36.5237 4.52948 36.5217C4.46463 36.5196 4.40088 36.5044 4.3421 36.4769C4.06475 36.3574 4.04084 36.1135 4.10779 35.8505C4.10779 35.8122 4.14126 35.774 4.15083 35.7357C4.21299 35.5397 4.40906 35.3579 4.33733 35.1667C4.2656 34.9754 3.9739 35.0806 3.78741 35.028C3.67452 35.0125 3.57189 34.9542 3.5007 34.8652C3.42952 34.7762 3.3952 34.6633 3.40484 34.5498C3.39611 34.4937 3.39898 34.4363 3.41326 34.3813C3.42754 34.3263 3.45294 34.2748 3.48789 34.23C3.52284 34.1852 3.56659 34.148 3.61646 34.1208C3.66633 34.0935 3.72125 34.0768 3.77783 34.0716C4.02214 34.0421 4.26856 34.0341 4.51426 34.0477C4.62219 34.0619 4.73172 34.0388 4.82475 33.9823C4.91778 33.9257 4.98876 33.8392 5.02593 33.7369C6.20708 31.1259 7.41691 28.5197 8.58849 25.9088C8.75586 25.5406 8.73195 25.5071 8.30636 25.5023C8.11508 25.5023 7.92381 25.5023 7.73253 25.5023C7.67355 25.5036 7.61491 25.493 7.56011 25.4712C7.5053 25.4493 7.45545 25.4167 7.41352 25.3752C7.37158 25.3337 7.33841 25.2842 7.31599 25.2297C7.29357 25.1751 7.28237 25.1166 7.28302 25.0576C7.27771 24.9967 7.28514 24.9353 7.30485 24.8775C7.32457 24.8196 7.35613 24.7665 7.39752 24.7215C7.43892 24.6765 7.48923 24.6406 7.54527 24.6162C7.6013 24.5917 7.66182 24.5792 7.72295 24.5794C8.04928 24.5554 8.37694 24.5554 8.70327 24.5794C8.85779 24.6053 9.01645 24.5733 9.14882 24.4895C9.28119 24.4056 9.37795 24.2759 9.42056 24.1251C11.1325 20.3314 12.8588 16.5377 14.5994 12.744C15.2657 11.2744 15.932 9.80791 16.5983 8.34463C16.7848 7.93338 16.7704 7.90947 16.3305 7.90947H15.2641C14.9676 7.90947 14.7572 7.78992 14.7429 7.46475C14.7285 7.13958 14.9485 6.98656 15.2593 6.96265C15.7806 6.96265 16.297 6.93874 16.8183 6.96265C16.9467 6.98156 17.0776 6.95319 17.1866 6.88282C17.2957 6.81246 17.3755 6.70487 17.4112 6.58008C17.4927 6.36275 17.5902 6.15177 17.7029 5.94887C17.7525 5.83577 17.8439 5.74622 17.958 5.69898C18.0721 5.65174 18.2 5.65046 18.315 5.69542C18.3755 5.71934 18.4306 5.75539 18.4767 5.80132C18.5228 5.84725 18.5591 5.90211 18.5832 5.96255C18.6074 6.02299 18.619 6.08773 18.6173 6.1528C18.6156 6.21787 18.6006 6.28191 18.5732 6.34098C18.382 6.95786 18.382 6.95786 19.0514 6.95786C20.8973 6.95786 22.7383 6.95786 24.5842 6.95786C24.9093 6.95786 25.1006 6.93395 24.895 6.53705C24.8547 6.48044 24.8282 6.41528 24.8173 6.34668C24.8065 6.27807 24.8117 6.20788 24.8325 6.14162C24.8534 6.07537 24.8893 6.01485 24.9375 5.96481C24.9857 5.91477 25.0448 5.87658 25.1102 5.85323C25.1711 5.81849 25.2395 5.79882 25.3095 5.79586C25.3796 5.7929 25.4494 5.80673 25.513 5.83621C25.5766 5.86569 25.6323 5.90997 25.6754 5.96534C25.7184 6.0207 25.7476 6.08556 25.7605 6.1545C25.9518 6.94352 26.4922 7.02959 27.1569 6.95786C27.4019 6.93634 27.6483 6.93634 27.8933 6.95786C27.9581 6.95778 28.0223 6.97089 28.082 6.9964C28.1416 7.02192 28.1954 7.05929 28.2402 7.10626C28.2849 7.15323 28.3196 7.20881 28.3422 7.26962C28.3648 7.33043 28.3747 7.39518 28.3715 7.45996C28.3717 7.52129 28.3591 7.582 28.3347 7.63826C28.3103 7.69452 28.2745 7.74512 28.2296 7.78688C28.1847 7.82865 28.1317 7.86068 28.0738 7.88095C28.0159 7.90123 27.9544 7.90931 27.8933 7.9047H27.0325C26.5974 7.9047 26.5543 7.94294 26.7504 8.34463L28.9166 13.1266C32.2066 20.3601 35.495 27.5936 38.7818 34.8272C38.8201 34.9132 38.8583 34.9993 38.8918 35.0902C38.9193 35.1459 38.9348 35.2068 38.9376 35.269C38.9403 35.3311 38.9301 35.3931 38.9076 35.451C38.8851 35.509 38.8509 35.5617 38.807 35.6058C38.7631 35.6498 38.7106 35.6843 38.6527 35.707C38.6033 35.7396 38.5473 35.7607 38.4887 35.7689C38.4302 35.777 38.3705 35.772 38.3141 35.7541C38.2577 35.7362 38.2061 35.706 38.1629 35.6656C38.1197 35.6252 38.0861 35.5756 38.0645 35.5205C37.8828 35.0089 37.5003 35.0423 37.0747 35.0423C34.4541 35.0423 31.8145 35.0423 29.2131 35.0423C29.0087 35.0674 28.8019 35.0211 28.6276 34.9114C28.4534 34.8016 28.3224 34.635 28.2567 34.4398C27.6924 33.1343 27.0804 31.8528 26.5113 30.5521C26.4657 30.4113 26.3725 30.2909 26.2477 30.2115C26.1229 30.132 25.9743 30.0986 25.8275 30.1169C23.038 30.1169 20.2517 30.1169 17.4686 30.1169C17.3217 30.0981 17.1728 30.132 17.0485 30.2126C16.9242 30.2931 16.8325 30.4151 16.7896 30.5569C16.3305 31.6089 15.8523 32.653 15.355 33.689C15.2067 34.0094 15.2737 34.1051 15.6132 34.0812C15.817 34.0668 16.0215 34.0668 16.2253 34.0812C16.2806 34.0799 16.3355 34.0895 16.3871 34.1095C16.4386 34.1295 16.4857 34.1594 16.5257 34.1976C16.5656 34.2358 16.5977 34.2815 16.62 34.3321C16.6423 34.3827 16.6544 34.4371 16.6557 34.4924C16.6666 34.5503 16.6656 34.6099 16.6528 34.6674C16.64 34.725 16.6157 34.7793 16.5813 34.8272C16.5468 34.875 16.503 34.9154 16.4525 34.9458C16.402 34.9762 16.3459 34.996 16.2875 35.0041C16.1406 35.0288 15.9914 35.0369 15.8427 35.028H10.9938ZM19.7831 29.151H28.0989C28.4097 29.151 28.6441 29.2753 28.6488 29.6292C28.6536 29.983 28.4337 30.1074 28.118 30.1074H27.8311C27.5059 30.0834 27.4055 30.1743 27.5586 30.5043C28.0607 31.5658 28.5436 32.6322 29.0218 33.7082C29.0596 33.8232 29.1358 33.9217 29.2378 33.987C29.3397 34.0524 29.461 34.0806 29.5813 34.0668C30.8103 34.0668 32.044 34.0668 33.273 34.0668C33.8038 34.0668 33.8038 34.0668 33.5934 33.5886L29.4235 24.3881C26.9943 19.0419 24.5666 13.6973 22.1406 8.3542C22.0945 8.20656 21.9978 8.07997 21.8674 7.99682C21.737 7.91368 21.5813 7.87935 21.4281 7.89991C20.3904 7.89991 19.3527 7.89991 18.315 7.89991C18.1814 7.88289 18.046 7.91265 17.9318 7.98413C17.8176 8.0556 17.7317 8.1644 17.6886 8.29203C15.2944 13.5745 12.8923 18.857 10.4822 24.1395C10.3483 24.4407 10.3435 24.5746 10.7404 24.5698C11.9964 24.5698 13.2525 24.5698 14.5086 24.5698C14.6342 24.5773 14.7588 24.5423 14.862 24.4702C14.9653 24.3982 15.0413 24.2935 15.0776 24.1729C16.4453 21.138 17.8209 18.1094 19.2045 15.0872C19.2573 14.9852 19.2849 14.8721 19.2849 14.7572C19.2849 14.6424 19.2573 14.5293 19.2045 14.4273C19.0371 14.083 18.8793 13.7339 18.7263 13.38C18.6981 13.3244 18.6819 13.2634 18.6788 13.2011C18.6757 13.1388 18.6857 13.0765 18.7083 13.0183C18.7308 12.9601 18.7654 12.9073 18.8097 12.8634C18.854 12.8194 18.907 12.7853 18.9654 12.7632C19.0205 12.7345 19.0809 12.7176 19.1429 12.7135C19.2049 12.7094 19.267 12.7182 19.3254 12.7393C19.3838 12.7604 19.4373 12.7934 19.4823 12.8362C19.5273 12.879 19.563 12.9307 19.587 12.9879C19.6536 13.1068 19.7127 13.2298 19.7639 13.3561C21.3994 16.9474 23.0444 20.5291 24.6655 24.1299C24.7099 24.2792 24.8073 24.4072 24.9393 24.49C25.0713 24.5727 25.229 24.6045 25.3827 24.5794C25.6547 24.5531 25.9285 24.5531 26.2005 24.5794C26.2602 24.5818 26.3188 24.5962 26.3728 24.6218C26.4268 24.6473 26.4751 24.6835 26.5148 24.7281C26.5546 24.7727 26.5849 24.8249 26.604 24.8815C26.6231 24.9381 26.6306 24.998 26.6261 25.0576C26.6313 25.1177 26.6242 25.1783 26.605 25.2355C26.5859 25.2927 26.5552 25.3454 26.5148 25.3902C26.4744 25.4351 26.4253 25.4711 26.3704 25.4962C26.3155 25.5212 26.256 25.5347 26.1957 25.5358C25.9422 25.5741 25.5979 25.4258 25.4497 25.6171C25.3015 25.8084 25.5979 26.0953 25.6458 26.3631C25.6859 26.4811 25.6784 26.6101 25.6248 26.7227C25.5712 26.8352 25.4758 26.9224 25.3588 26.9656C25.2491 27.01 25.1262 27.0092 25.017 26.9636C24.9078 26.9179 24.821 26.831 24.7754 26.7217C24.6561 26.5223 24.5583 26.3107 24.4838 26.0905C24.3546 25.6506 24.0964 25.5214 23.6373 25.5262C19.3909 25.5262 15.1446 25.5262 10.8982 25.5262C9.57358 25.5262 9.9131 25.3397 9.3823 26.4826C8.27766 28.8736 7.19694 31.2646 6.10665 33.6556C6.01579 33.8468 5.8819 34.0429 6.27402 34.0429C7.59862 34.0429 8.92323 34.0429 10.2478 34.0429C10.3362 34.0538 10.4257 34.0354 10.5026 33.9905C10.5795 33.9455 10.6395 33.8766 10.6734 33.7942C11.1851 32.6609 11.7015 31.5324 12.218 30.399C12.3328 30.1504 12.218 30.0834 11.9837 30.0882C11.7529 30.105 11.5211 30.105 11.2903 30.0882C11.2314 30.0853 11.1737 30.0704 11.1207 30.0445C11.0677 30.0185 11.0206 29.9821 10.9821 29.9374C10.9436 29.8926 10.9147 29.8405 10.8969 29.7843C10.8792 29.728 10.8731 29.6687 10.8791 29.61C10.8763 29.4985 10.9164 29.3903 10.9911 29.3075C11.0659 29.2248 11.1696 29.1739 11.2807 29.1653C11.4303 29.1532 11.5807 29.1532 11.7302 29.1653L19.7831 29.151ZM36.0418 34.0668H36.6156C37.3616 34.0668 37.3664 34.0668 37.0603 33.3926L29.7152 17.2104C28.3763 14.2711 27.0421 11.3254 25.7127 8.37332C25.668 8.21639 25.5675 8.0812 25.4301 7.99315C25.2928 7.90509 25.128 7.87023 24.9667 7.89512C24.4885 7.9286 24.0103 7.89512 23.5321 7.89512C22.9726 7.89512 22.9679 7.89512 23.1926 8.37332C26.9225 16.5696 30.6445 24.7707 34.3585 32.9765C34.7315 33.8038 35.0854 34.3537 36.0513 34.0668H36.0418ZM19.8596 15.9575L19.0419 17.7555L16.1727 24.0964C15.9814 24.5125 16.0053 24.5746 16.4261 24.5746C16.9856 24.5746 17.5451 24.5746 18.1046 24.5746C18.2119 24.5891 18.321 24.5667 18.414 24.5111C18.5069 24.4555 18.5782 24.37 18.6163 24.2686C19.4053 22.5136 20.2039 20.7586 21.0073 19.0084C21.0646 18.8841 21.1459 18.755 21.0838 18.6163C20.6869 17.7555 20.2995 16.9044 19.8596 15.9575ZM21.6337 24.5651H23.3935C23.666 24.5651 23.7378 24.4599 23.623 24.216L21.8011 20.2326C21.7676 20.1561 21.7437 20.0557 21.6576 20.0461C21.5715 20.0365 21.5189 20.1609 21.4807 20.2422C20.8877 21.562 20.2916 22.8802 19.6922 24.1968C19.5488 24.5077 19.654 24.5746 19.9552 24.5698C20.5243 24.5555 21.0838 24.5651 21.6433 24.5651H21.6337ZM12.9066 34.0668H13.8104C13.9046 34.0801 14.0006 34.0614 14.0829 34.0137C14.1653 33.966 14.2293 33.8921 14.2647 33.8038C14.7748 32.6689 15.288 31.5387 15.8045 30.4134C15.9001 30.1982 15.8571 30.1121 15.618 30.1121H13.7052C13.6232 30.1076 13.542 30.1299 13.4739 30.1756C13.4057 30.2214 13.3543 30.288 13.3274 30.3656L11.7876 33.7512C11.6968 33.9568 11.7446 34.0668 11.9837 34.062L12.9066 34.0668Z" fill="white"/>
<path d="M21.5618 34.0667H24.2588C24.6892 34.0667 24.89 34.2197 24.8757 34.5448C24.8757 34.9417 24.5744 35.023 24.2492 35.023H18.903C18.5683 35.023 18.2861 34.9178 18.2861 34.5448C18.2861 34.1719 18.5826 34.0667 18.9174 34.0667H21.5618Z" fill="white"/>
</g>
<defs>
<clipPath id="clip0_262_577">
<rect width="42" height="42" fill="white"/>
</clipPath>
</defs>
</svg>
