<svg width="68" height="66" viewBox="0 0 68 66" fill="none" xmlns="http://www.w3.org/2000/svg">
<g clip-path="url(#clip0_262_561)">
<mask id="path-1-inside-1_262_561" fill="white">
<path d="M1.40637 20.2091C1.42282 19.6157 1.34286 19.0162 1.40918 18.4168C1.51857 17.3677 1.94371 16.3742 2.62914 15.5659C3.31457 14.7576 4.22847 14.1719 5.2517 13.8854C18.0648 10.1987 30.8656 6.47016 43.6543 2.69966C44.993 2.30352 46.4309 2.42521 47.6782 3.04021C48.9255 3.6552 49.8894 4.71779 50.3757 6.01382C50.5413 6.4248 50.6837 6.84467 50.8023 7.27153C52.827 14.2228 54.8518 21.1742 56.8765 28.1255C56.9146 28.3047 56.9918 28.4732 57.1027 28.6193C57.2136 28.7653 57.3556 28.8853 57.5185 28.9707C57.8387 29.1018 58.1262 29.3002 58.3612 29.5525C58.5962 29.8047 58.7732 30.1047 58.8799 30.4319C58.9867 30.7591 59.0207 31.1057 58.9796 31.4479C58.9385 31.79 58.8233 32.1196 58.6419 32.414C58.5816 32.4987 58.5572 32.6035 58.574 32.7056C58.5909 32.8076 58.6476 32.8988 58.7319 32.9594C58.8257 33.0409 58.908 33.1345 58.9765 33.2379C59.4514 33.9526 59.8768 34.4088 60.9228 34.1894C61.4294 34.1413 61.9357 34.2747 62.3503 34.5655C62.7648 34.8563 63.0601 35.2852 63.1828 35.7747C63.3775 36.4431 63.5699 37.1036 63.7646 37.772C63.9297 38.3691 63.8538 39.0075 63.5531 39.5521C63.2524 40.0967 62.7505 40.5047 62.1537 40.6895C61.7968 40.7935 61.6362 40.9511 61.6712 41.3078C61.6865 41.4321 61.6796 41.5583 61.6507 41.6805C61.5075 42.0126 61.4953 42.3854 61.6165 42.7248C61.7376 43.0641 61.9833 43.3451 62.3046 43.5118C62.7022 43.8245 62.9744 44.2677 63.0728 44.7624C63.1711 45.257 63.0893 45.7711 62.8419 46.2131C62.516 46.8869 62.1561 47.5441 61.7635 48.1822C61.4593 48.7168 60.957 49.1128 60.364 49.2855C59.7711 49.4582 59.1346 49.3939 58.591 49.1062C58.2355 48.9197 58.0099 48.9428 57.7658 49.2271L57.7182 49.241C56.935 49.7421 56.4148 50.2605 56.6199 51.378C56.6493 51.8737 56.5013 52.3645 56.202 52.7639C55.9027 53.1633 55.4713 53.4454 54.9841 53.5605C54.3496 53.7453 53.7072 53.9325 53.0727 54.1173C52.4766 54.3093 51.8292 54.2597 51.2719 53.9793C50.7147 53.6989 50.2929 53.2104 50.0986 52.6206C49.9703 52.1802 49.7308 52.0964 49.3066 52.0579C48.4196 51.9665 47.7286 51.8095 47.119 52.7889C46.8006 53.1612 46.3609 53.4108 45.8769 53.4941C45.393 53.5773 44.8958 53.4888 44.4725 53.2442C43.8014 52.9193 43.1393 52.5662 42.502 52.1802C41.978 51.8755 41.5947 51.3799 41.4333 50.7981C41.2718 50.2163 41.3449 49.594 41.637 49.0626C41.6853 49.0015 41.7205 48.9313 41.7404 48.8563C41.7603 48.7812 41.7645 48.703 41.7527 48.6265C41.7409 48.5499 41.7133 48.4766 41.6718 48.4112C41.6302 48.3458 41.5755 48.2897 41.511 48.2462C41.3311 48.0702 41.1685 47.8777 41.0252 47.6712C40.4948 46.9726 40.4948 46.9726 39.6461 47.2198L31.9688 49.456C31.7453 49.5538 31.4966 49.5786 31.2587 49.5267C31.0209 49.4748 30.8062 49.349 30.6458 49.1675C30.5225 49.0319 30.4375 48.8663 30.3995 48.6873C30.3615 48.5083 30.3717 48.3224 30.4292 48.1482C30.4867 47.974 30.5893 47.8177 30.7268 47.6951C30.8643 47.5724 31.0318 47.4879 31.2123 47.4498C33.0048 46.9278 34.7893 46.408 36.5738 45.8882C37.0655 45.745 37.2261 45.5873 37.0217 45.0923C36.8427 44.6106 36.6988 44.1165 36.5911 43.614C36.4891 43.3118 36.45 42.992 36.4762 42.6738C36.5023 42.3557 36.5931 42.0458 36.7431 41.7628C36.8931 41.4799 37.0993 41.2299 37.349 41.0279C37.5987 40.8258 37.8869 40.6759 38.1961 40.5873C38.5133 40.4949 38.6943 40.3484 38.6434 39.9964C38.6344 39.9262 38.64 39.8549 38.6598 39.7869C38.8115 39.4135 38.8236 38.9992 38.6939 38.6191C38.5643 38.239 38.3014 37.9182 37.9531 37.715C37.5677 37.4008 37.3075 36.9605 37.219 36.4725C37.1304 35.9844 37.219 35.4802 37.4692 35.0494C37.8075 34.3793 38.1662 33.7203 38.5579 33.0859C38.8714 32.5565 39.3806 32.169 39.9766 32.0066C40.5726 31.8442 41.2079 31.9197 41.7464 32.2169C42.0791 32.3844 42.3014 32.3794 42.5273 32.0918C42.606 31.9945 42.7013 31.9119 42.809 31.8476C43.1458 31.709 43.4185 31.4502 43.5731 31.1224C43.7278 30.7946 43.7531 30.4217 43.6442 30.0774C43.585 29.6032 43.6927 29.1224 43.9493 28.7165C44.2058 28.3107 44.5953 28.0047 45.0519 27.8504C45.7749 27.5885 46.5141 27.3732 47.2647 27.2058C47.561 27.115 47.8721 27.0831 48.1803 27.1119C48.4885 27.1407 48.7877 27.2296 49.0606 27.3736C49.3336 27.5176 49.575 27.7138 49.771 27.951C49.9669 28.1882 50.1136 28.4616 50.2027 28.7557C50.2297 28.9007 50.3113 29.0299 50.4309 29.117C50.5506 29.2041 50.6993 29.2427 50.847 29.2249C51.292 29.2458 51.735 29.2963 52.173 29.3761C52.3886 29.4071 52.5325 29.3993 52.6487 29.1778C52.7937 28.8573 53.0096 28.5732 53.2803 28.3466C53.5511 28.12 53.8696 27.9569 54.2121 27.8694C54.6166 27.7515 54.4118 27.5212 54.3648 27.3301L52.6813 21.5505C52.3194 20.308 51.9575 19.0656 51.5956 17.8232C51.4972 17.485 51.3551 17.3814 51.0335 17.5177C50.9328 17.5556 50.8294 17.5857 50.7242 17.6078L7.30906 30.2535C6.46042 30.5007 6.57693 30.3985 6.7991 31.1613C8.52608 37.0904 10.2531 43.0194 11.9801 48.9485C12.2018 49.8348 12.6949 50.6299 13.3916 51.2245C13.7563 51.5541 14.203 51.7815 14.6861 51.8835C15.1693 51.9856 15.6716 51.9586 16.1419 51.8053C18.0137 51.2602 19.8855 50.715 21.7572 50.1698C22.5503 49.9388 23.1328 50.1956 23.3104 50.8349C23.488 51.4741 23.1323 51.9957 22.3312 52.2291C20.5626 52.7442 18.7756 53.1965 17.0253 53.7746C15.7476 54.2001 14.3578 54.135 13.1307 53.5921C11.9036 53.0492 10.9284 52.068 10.3979 50.8425C10.3636 50.7245 10.3269 50.5987 10.1986 50.5422L1.40637 20.2091ZM28.4653 21.8903L50.1174 15.5837C50.2524 15.5358 50.3901 15.4957 50.5298 15.4635C50.8766 15.4137 50.8999 15.2278 50.8072 14.9391C50.6629 14.4437 50.5186 13.9483 50.3743 13.4529C49.7491 11.3062 49.1238 9.15947 48.4985 7.01273C48.3909 6.56593 48.1883 6.14752 47.9043 5.78552C47.6203 5.42353 47.2614 5.12628 46.8517 4.91369C46.4419 4.7011 45.9908 4.57807 45.5284 4.55281C45.066 4.52756 44.603 4.60068 44.1705 4.76727L39.1184 6.23883C28.0148 9.47303 16.9297 12.7018 5.86308 15.9252C5.40977 16.0347 4.98983 16.2525 4.63987 16.5596C4.28991 16.8668 4.02057 17.2539 3.85534 17.6873C3.50284 18.5922 3.47406 19.5885 3.77382 20.5091C4.48157 22.9389 5.1916 25.3766 5.90163 27.8142C6.04593 28.3096 6.19925 28.3929 6.69891 28.2474C13.9419 26.115 21.1973 23.9959 28.4653 21.8903ZM60.8871 45.0849C60.8505 44.9591 60.7165 44.9128 60.6143 44.8572L59.8579 44.4463C59.7179 44.3951 59.5899 44.3161 59.482 44.214C59.374 44.1119 59.2883 43.9889 59.23 43.8525C59.1718 43.7162 59.1422 43.5693 59.1432 43.4209C59.1442 43.2725 59.1757 43.1258 59.2357 42.9896C59.4537 42.1456 59.5595 41.2773 59.5504 40.407C59.5271 39.3816 59.709 39.1495 60.7004 38.8607C61.898 38.5119 61.7962 38.6354 61.4573 37.4716C61.1183 36.3078 61.0954 36.2292 59.8229 36.5571C59.682 36.6183 59.5302 36.6507 59.3766 36.6522C59.2231 36.6537 59.071 36.6244 58.9294 36.566C58.7878 36.5077 58.6598 36.4215 58.5528 36.3125C58.4459 36.2036 58.3624 36.0743 58.3072 35.9323C57.8472 35.171 57.2882 34.4734 56.6446 33.8574C55.9555 33.205 55.9138 32.8845 56.3515 32.0831C56.9156 31.0657 56.9156 31.0657 55.8934 30.5104C54.8712 29.9551 54.7792 29.9051 54.1644 31.014C54.112 31.16 54.0302 31.294 53.924 31.4078C53.8178 31.5216 53.6894 31.6129 53.5468 31.676C53.4041 31.7391 53.2501 31.7727 53.0942 31.7749C52.9383 31.777 52.7838 31.7475 52.64 31.6883C51.7418 31.4626 50.8153 31.3648 49.8882 31.398C49.0401 31.4402 48.7423 31.1858 48.4905 30.3805C48.1584 29.2402 48.1584 29.2402 47.0163 29.5729C45.8742 29.9056 45.787 29.931 46.1295 31.1364C46.1986 31.2775 46.2373 31.4315 46.243 31.5885C46.2488 31.7456 46.2215 31.9023 46.1629 32.0486C46.1043 32.1948 46.0157 32.3276 45.9028 32.4382C45.7898 32.5488 45.655 32.635 45.5068 32.6912C44.7479 33.1313 44.0511 33.6699 43.4351 34.2927C42.7772 34.9877 42.4405 35.0431 41.6046 34.5955C40.444 33.9782 40.674 33.9112 40.0184 35.0576C39.3629 36.204 39.4036 36.1665 40.5177 36.7718C40.673 36.8206 40.8159 36.9017 40.9368 37.0097C41.0578 37.1177 41.154 37.2502 41.2191 37.3984C41.2842 37.5465 41.3168 37.7068 41.3145 37.8687C41.3122 38.0306 41.2752 38.1903 41.206 38.3372C40.9915 39.2021 40.8945 40.091 40.9176 40.9804C40.9563 41.8222 40.6929 42.1292 39.8863 42.3727C38.7125 42.7146 38.7045 42.7169 39.0491 43.8705C39.4523 45.2545 39.2364 45.1041 40.5972 44.7248C41.3903 44.4938 41.774 44.6294 42.199 45.3502C42.6332 46.083 43.1695 46.751 43.7922 47.3344C44.4971 47.9821 44.5503 48.342 44.0765 49.1966C43.447 50.3439 43.4101 50.0987 44.5231 50.7299C45.6362 51.3612 45.668 51.3519 46.3235 50.2055C46.3751 50.0662 46.4546 49.9385 46.5571 49.8302C46.6596 49.7219 46.7831 49.6352 46.92 49.5754C47.057 49.5156 47.2046 49.4838 47.3539 49.4821C47.5033 49.4804 47.6513 49.5087 47.789 49.5654C48.6383 49.7823 49.5134 49.886 50.3912 49.8738C51.4503 49.8468 51.6912 50.024 51.9867 51.0384C52.3233 52.1944 52.1757 52.1009 53.3438 51.7692C54.6525 51.388 54.6525 51.388 54.3029 50.0993L54.2594 49.9499C54.1791 49.7191 54.1855 49.4669 54.2773 49.2396C54.3691 49.0123 54.5403 48.8251 54.7593 48.7124C55.6698 48.1806 56.4977 47.5199 57.2167 46.7511C57.3808 46.5575 57.61 46.4294 57.8615 46.3907C58.113 46.352 58.3696 46.4053 58.5837 46.5406L59.4832 47.0293C59.7205 47.1649 59.9065 47.1534 60.0463 46.8653L60.845 45.4128C60.8799 45.3259 60.9442 45.2218 60.8871 45.0849Z"/>
</mask>
<path d="M1.40637 20.2091C1.42282 19.6157 1.34286 19.0162 1.40918 18.4168C1.51857 17.3677 1.94371 16.3742 2.62914 15.5659C3.31457 14.7576 4.22847 14.1719 5.2517 13.8854C18.0648 10.1987 30.8656 6.47016 43.6543 2.69966C44.993 2.30352 46.4309 2.42521 47.6782 3.04021C48.9255 3.6552 49.8894 4.71779 50.3757 6.01382C50.5413 6.4248 50.6837 6.84467 50.8023 7.27153C52.827 14.2228 54.8518 21.1742 56.8765 28.1255C56.9146 28.3047 56.9918 28.4732 57.1027 28.6193C57.2136 28.7653 57.3556 28.8853 57.5185 28.9707C57.8387 29.1018 58.1262 29.3002 58.3612 29.5525C58.5962 29.8047 58.7732 30.1047 58.8799 30.4319C58.9867 30.7591 59.0207 31.1057 58.9796 31.4479C58.9385 31.79 58.8233 32.1196 58.6419 32.414C58.5816 32.4987 58.5572 32.6035 58.574 32.7056C58.5909 32.8076 58.6476 32.8988 58.7319 32.9594C58.8257 33.0409 58.908 33.1345 58.9765 33.2379C59.4514 33.9526 59.8768 34.4088 60.9228 34.1894C61.4294 34.1413 61.9357 34.2747 62.3503 34.5655C62.7648 34.8563 63.0601 35.2852 63.1828 35.7747C63.3775 36.4431 63.5699 37.1036 63.7646 37.772C63.9297 38.3691 63.8538 39.0075 63.5531 39.5521C63.2524 40.0967 62.7505 40.5047 62.1537 40.6895C61.7968 40.7935 61.6362 40.9511 61.6712 41.3078C61.6865 41.4321 61.6796 41.5583 61.6507 41.6805C61.5075 42.0126 61.4953 42.3854 61.6165 42.7248C61.7376 43.0641 61.9833 43.3451 62.3046 43.5118C62.7022 43.8245 62.9744 44.2677 63.0728 44.7624C63.1711 45.257 63.0893 45.7711 62.8419 46.2131C62.516 46.8869 62.1561 47.5441 61.7635 48.1822C61.4593 48.7168 60.957 49.1128 60.364 49.2855C59.7711 49.4582 59.1346 49.3939 58.591 49.1062C58.2355 48.9197 58.0099 48.9428 57.7658 49.2271L57.7182 49.241C56.935 49.7421 56.4148 50.2605 56.6199 51.378C56.6493 51.8737 56.5013 52.3645 56.202 52.7639C55.9027 53.1633 55.4713 53.4454 54.9841 53.5605C54.3496 53.7453 53.7072 53.9325 53.0727 54.1173C52.4766 54.3093 51.8292 54.2597 51.2719 53.9793C50.7147 53.6989 50.2929 53.2104 50.0986 52.6206C49.9703 52.1802 49.7308 52.0964 49.3066 52.0579C48.4196 51.9665 47.7286 51.8095 47.119 52.7889C46.8006 53.1612 46.3609 53.4108 45.8769 53.4941C45.393 53.5773 44.8958 53.4888 44.4725 53.2442C43.8014 52.9193 43.1393 52.5662 42.502 52.1802C41.978 51.8755 41.5947 51.3799 41.4333 50.7981C41.2718 50.2163 41.3449 49.594 41.637 49.0626C41.6853 49.0015 41.7205 48.9313 41.7404 48.8563C41.7603 48.7812 41.7645 48.703 41.7527 48.6265C41.7409 48.5499 41.7133 48.4766 41.6718 48.4112C41.6302 48.3458 41.5755 48.2897 41.511 48.2462C41.3311 48.0702 41.1685 47.8777 41.0252 47.6712C40.4948 46.9726 40.4948 46.9726 39.6461 47.2198L31.9688 49.456C31.7453 49.5538 31.4966 49.5786 31.2587 49.5267C31.0209 49.4748 30.8062 49.349 30.6458 49.1675C30.5225 49.0319 30.4375 48.8663 30.3995 48.6873C30.3615 48.5083 30.3717 48.3224 30.4292 48.1482C30.4867 47.974 30.5893 47.8177 30.7268 47.6951C30.8643 47.5724 31.0318 47.4879 31.2123 47.4498C33.0048 46.9278 34.7893 46.408 36.5738 45.8882C37.0655 45.745 37.2261 45.5873 37.0217 45.0923C36.8427 44.6106 36.6988 44.1165 36.5911 43.614C36.4891 43.3118 36.45 42.992 36.4762 42.6738C36.5023 42.3557 36.5931 42.0458 36.7431 41.7628C36.8931 41.4799 37.0993 41.2299 37.349 41.0279C37.5987 40.8258 37.8869 40.6759 38.1961 40.5873C38.5133 40.4949 38.6943 40.3484 38.6434 39.9964C38.6344 39.9262 38.64 39.8549 38.6598 39.7869C38.8115 39.4135 38.8236 38.9992 38.6939 38.6191C38.5643 38.239 38.3014 37.9182 37.9531 37.715C37.5677 37.4008 37.3075 36.9605 37.219 36.4725C37.1304 35.9844 37.219 35.4802 37.4692 35.0494C37.8075 34.3793 38.1662 33.7203 38.5579 33.0859C38.8714 32.5565 39.3806 32.169 39.9766 32.0066C40.5726 31.8442 41.2079 31.9197 41.7464 32.2169C42.0791 32.3844 42.3014 32.3794 42.5273 32.0918C42.606 31.9945 42.7013 31.9119 42.809 31.8476C43.1458 31.709 43.4185 31.4502 43.5731 31.1224C43.7278 30.7946 43.7531 30.4217 43.6442 30.0774C43.585 29.6032 43.6927 29.1224 43.9493 28.7165C44.2058 28.3107 44.5953 28.0047 45.0519 27.8504C45.7749 27.5885 46.5141 27.3732 47.2647 27.2058C47.561 27.115 47.8721 27.0831 48.1803 27.1119C48.4885 27.1407 48.7877 27.2296 49.0606 27.3736C49.3336 27.5176 49.575 27.7138 49.771 27.951C49.9669 28.1882 50.1136 28.4616 50.2027 28.7557C50.2297 28.9007 50.3113 29.0299 50.4309 29.117C50.5506 29.2041 50.6993 29.2427 50.847 29.2249C51.292 29.2458 51.735 29.2963 52.173 29.3761C52.3886 29.4071 52.5325 29.3993 52.6487 29.1778C52.7937 28.8573 53.0096 28.5732 53.2803 28.3466C53.5511 28.12 53.8696 27.9569 54.2121 27.8694C54.6166 27.7515 54.4118 27.5212 54.3648 27.3301L52.6813 21.5505C52.3194 20.308 51.9575 19.0656 51.5956 17.8232C51.4972 17.485 51.3551 17.3814 51.0335 17.5177C50.9328 17.5556 50.8294 17.5857 50.7242 17.6078L7.30906 30.2535C6.46042 30.5007 6.57693 30.3985 6.7991 31.1613C8.52608 37.0904 10.2531 43.0194 11.9801 48.9485C12.2018 49.8348 12.6949 50.6299 13.3916 51.2245C13.7563 51.5541 14.203 51.7815 14.6861 51.8835C15.1693 51.9856 15.6716 51.9586 16.1419 51.8053C18.0137 51.2602 19.8855 50.715 21.7572 50.1698C22.5503 49.9388 23.1328 50.1956 23.3104 50.8349C23.488 51.4741 23.1323 51.9957 22.3312 52.2291C20.5626 52.7442 18.7756 53.1965 17.0253 53.7746C15.7476 54.2001 14.3578 54.135 13.1307 53.5921C11.9036 53.0492 10.9284 52.068 10.3979 50.8425C10.3636 50.7245 10.3269 50.5987 10.1986 50.5422L1.40637 20.2091ZM28.4653 21.8903L50.1174 15.5837C50.2524 15.5358 50.3901 15.4957 50.5298 15.4635C50.8766 15.4137 50.8999 15.2278 50.8072 14.9391C50.6629 14.4437 50.5186 13.9483 50.3743 13.4529C49.7491 11.3062 49.1238 9.15947 48.4985 7.01273C48.3909 6.56593 48.1883 6.14752 47.9043 5.78552C47.6203 5.42353 47.2614 5.12628 46.8517 4.91369C46.4419 4.7011 45.9908 4.57807 45.5284 4.55281C45.066 4.52756 44.603 4.60068 44.1705 4.76727L39.1184 6.23883C28.0148 9.47303 16.9297 12.7018 5.86308 15.9252C5.40977 16.0347 4.98983 16.2525 4.63987 16.5596C4.28991 16.8668 4.02057 17.2539 3.85534 17.6873C3.50284 18.5922 3.47406 19.5885 3.77382 20.5091C4.48157 22.9389 5.1916 25.3766 5.90163 27.8142C6.04593 28.3096 6.19925 28.3929 6.69891 28.2474C13.9419 26.115 21.1973 23.9959 28.4653 21.8903ZM60.8871 45.0849C60.8505 44.9591 60.7165 44.9128 60.6143 44.8572L59.8579 44.4463C59.7179 44.3951 59.5899 44.3161 59.482 44.214C59.374 44.1119 59.2883 43.9889 59.23 43.8525C59.1718 43.7162 59.1422 43.5693 59.1432 43.4209C59.1442 43.2725 59.1757 43.1258 59.2357 42.9896C59.4537 42.1456 59.5595 41.2773 59.5504 40.407C59.5271 39.3816 59.709 39.1495 60.7004 38.8607C61.898 38.5119 61.7962 38.6354 61.4573 37.4716C61.1183 36.3078 61.0954 36.2292 59.8229 36.5571C59.682 36.6183 59.5302 36.6507 59.3766 36.6522C59.2231 36.6537 59.071 36.6244 58.9294 36.566C58.7878 36.5077 58.6598 36.4215 58.5528 36.3125C58.4459 36.2036 58.3624 36.0743 58.3072 35.9323C57.8472 35.171 57.2882 34.4734 56.6446 33.8574C55.9555 33.205 55.9138 32.8845 56.3515 32.0831C56.9156 31.0657 56.9156 31.0657 55.8934 30.5104C54.8712 29.9551 54.7792 29.9051 54.1644 31.014C54.112 31.16 54.0302 31.294 53.924 31.4078C53.8178 31.5216 53.6894 31.6129 53.5468 31.676C53.4041 31.7391 53.2501 31.7727 53.0942 31.7749C52.9383 31.777 52.7838 31.7475 52.64 31.6883C51.7418 31.4626 50.8153 31.3648 49.8882 31.398C49.0401 31.4402 48.7423 31.1858 48.4905 30.3805C48.1584 29.2402 48.1584 29.2402 47.0163 29.5729C45.8742 29.9056 45.787 29.931 46.1295 31.1364C46.1986 31.2775 46.2373 31.4315 46.243 31.5885C46.2488 31.7456 46.2215 31.9023 46.1629 32.0486C46.1043 32.1948 46.0157 32.3276 45.9028 32.4382C45.7898 32.5488 45.655 32.635 45.5068 32.6912C44.7479 33.1313 44.0511 33.6699 43.4351 34.2927C42.7772 34.9877 42.4405 35.0431 41.6046 34.5955C40.444 33.9782 40.674 33.9112 40.0184 35.0576C39.3629 36.204 39.4036 36.1665 40.5177 36.7718C40.673 36.8206 40.8159 36.9017 40.9368 37.0097C41.0578 37.1177 41.154 37.2502 41.2191 37.3984C41.2842 37.5465 41.3168 37.7068 41.3145 37.8687C41.3122 38.0306 41.2752 38.1903 41.206 38.3372C40.9915 39.2021 40.8945 40.091 40.9176 40.9804C40.9563 41.8222 40.6929 42.1292 39.8863 42.3727C38.7125 42.7146 38.7045 42.7169 39.0491 43.8705C39.4523 45.2545 39.2364 45.1041 40.5972 44.7248C41.3903 44.4938 41.774 44.6294 42.199 45.3502C42.6332 46.083 43.1695 46.751 43.7922 47.3344C44.4971 47.9821 44.5503 48.342 44.0765 49.1966C43.447 50.3439 43.4101 50.0987 44.5231 50.7299C45.6362 51.3612 45.668 51.3519 46.3235 50.2055C46.3751 50.0662 46.4546 49.9385 46.5571 49.8302C46.6596 49.7219 46.7831 49.6352 46.92 49.5754C47.057 49.5156 47.2046 49.4838 47.3539 49.4821C47.5033 49.4804 47.6513 49.5087 47.789 49.5654C48.6383 49.7823 49.5134 49.886 50.3912 49.8738C51.4503 49.8468 51.6912 50.024 51.9867 51.0384C52.3233 52.1944 52.1757 52.1009 53.3438 51.7692C54.6525 51.388 54.6525 51.388 54.3029 50.0993L54.2594 49.9499C54.1791 49.7191 54.1855 49.4669 54.2773 49.2396C54.3691 49.0123 54.5403 48.8251 54.7593 48.7124C55.6698 48.1806 56.4977 47.5199 57.2167 46.7511C57.3808 46.5575 57.61 46.4294 57.8615 46.3907C58.113 46.352 58.3696 46.4053 58.5837 46.5406L59.4832 47.0293C59.7205 47.1649 59.9065 47.1534 60.0463 46.8653L60.845 45.4128C60.8799 45.3259 60.9442 45.2218 60.8871 45.0849Z" fill="white" stroke="#CC9952" stroke-width="0.4" mask="url(#path-1-inside-1_262_561)"/>
<path d="M28.0999 31.4926C28.2329 31.4604 28.3714 31.4581 28.5054 31.4844C28.6392 31.5106 28.7657 31.5654 28.8756 31.645L28.8817 31.6484C29.5072 32.0379 30.1358 32.4247 30.7631 32.8102C31.3906 33.1958 32.017 33.5806 32.637 33.9671L32.6418 33.9697C32.9528 34.1395 33.1825 34.4257 33.2811 34.764C33.3795 35.1023 33.3392 35.4664 33.1681 35.7765L33.1647 35.7825C32.8556 36.4479 32.5403 37.1133 32.2206 37.7755L31.2505 39.7496L31.2475 39.7566C31.1966 39.8803 31.1212 39.9927 31.0253 40.0867C30.9292 40.1808 30.8143 40.2549 30.6887 40.3038C30.5632 40.3526 30.429 40.3761 30.2946 40.3718C30.1606 40.3675 30.0289 40.3363 29.9078 40.28L29.9087 40.2797C29.7887 40.2206 29.6821 40.1371 29.5964 40.0351C29.5108 39.9332 29.4469 39.8151 29.4097 39.6876C29.3726 39.56 29.3628 39.4255 29.3804 39.2934C29.3979 39.1614 29.4421 39.0339 29.5115 38.9196L29.5127 38.9202L29.5178 38.9096C30.0045 37.8639 30.4984 36.8169 31.0229 35.7869L31.0236 35.7857C31.0958 35.6369 31.1345 35.5012 31.0959 35.3741C31.0575 35.2479 30.9518 35.158 30.8175 35.0748L30.8139 35.0728C29.7823 34.4793 28.826 33.8408 27.824 33.2167L27.8203 33.2147C27.6511 33.1179 27.5171 32.9709 27.4365 32.7945C27.3559 32.618 27.3328 32.4206 27.3707 32.2298L27.3704 32.2289C27.405 32.0494 27.4931 31.8837 27.6223 31.7527C27.7193 31.6547 27.8363 31.5794 27.9649 31.5319L28.0999 31.4926Z" fill="white" stroke="#CC9952" stroke-width="0.2"/>
<path d="M16.3537 34.8855C16.4827 34.834 16.6211 34.8107 16.7597 34.8161C16.8974 34.8215 17.0326 34.8548 17.1558 34.9153L17.1561 34.9163C17.2752 34.9778 17.3808 35.0628 17.4657 35.1658C17.5507 35.2688 17.6138 35.3877 17.651 35.5156C17.6883 35.6435 17.6989 35.7778 17.6826 35.9102C17.6703 36.0098 17.6431 36.1071 17.6017 36.1983L17.5553 36.287L17.5529 36.2928C17.1803 37.0466 16.8187 37.8252 16.4447 38.5991L16.0659 39.3695C15.9798 39.5375 15.9445 39.6836 15.9912 39.8185C16.0365 39.9489 16.1504 40.042 16.2838 40.1279L16.2886 40.1306C17.2687 40.696 18.2619 41.3342 19.2349 41.9556L19.2352 41.9565L19.2388 41.9585C19.4306 42.0671 19.5791 42.2382 19.6585 42.4425C19.7379 42.647 19.7444 42.8731 19.676 43.0823L19.6753 43.0835C19.6154 43.2785 19.4936 43.4502 19.3284 43.5721C19.1632 43.6939 18.9631 43.7602 18.7578 43.7607L18.7556 43.7603C18.5443 43.765 18.3369 43.7032 18.1641 43.5837L18.165 43.5834L18.1602 43.5808L14.3965 41.2645L14.3955 41.2648C14.1002 41.0746 13.8849 40.784 13.7893 40.4476C13.6993 40.1094 13.7381 39.7492 13.8973 39.4356L13.898 39.4344L15.7898 35.4708L15.7933 35.4617C15.8405 35.3321 15.9149 35.2137 16.0115 35.1144C16.1081 35.0151 16.2247 34.937 16.3537 34.8855Z" fill="white" stroke="#CC9952" stroke-width="0.2"/>
<path d="M23.0166 32.1123L23.0185 32.1118C23.1556 32.0729 23.2996 32.0632 23.4405 32.0835C23.5812 32.1038 23.7161 32.153 23.8357 32.2287C23.9553 32.3045 24.0566 32.4054 24.1341 32.5232C24.2111 32.6404 24.2626 32.7724 24.2846 32.9107C24.337 33.857 24.3871 34.914 24.4377 35.9714L24.4379 35.9724C24.5377 37.939 24.6276 39.9003 24.7171 41.8617L24.7176 41.8738L24.7209 41.885C24.7308 41.9192 24.7317 41.9589 24.7282 42.008C24.7264 42.0325 24.7238 42.057 24.721 42.0844L24.7143 42.1697L24.714 42.1759C24.7193 42.4275 24.6251 42.6716 24.4515 42.8565C24.2779 43.0415 24.0388 43.1531 23.7848 43.1657L23.7845 43.1647L23.7796 43.1652L23.6836 43.1707C23.5875 43.1712 23.4918 43.1576 23.3999 43.1293C23.2776 43.0915 23.1648 43.029 23.0679 42.9463C22.971 42.8634 22.8918 42.7609 22.8362 42.6466C22.7807 42.5323 22.7491 42.4078 22.7439 42.2808L22.7443 42.2787C22.7011 41.6431 22.6695 41.0132 22.6406 40.3794L22.55 38.4549L22.2989 33.308C22.285 32.9767 22.3464 32.7082 22.468 32.5091C22.5886 32.3117 22.7726 32.1756 23.0166 32.1123Z" fill="white" stroke="#CC9952" stroke-width="0.2"/>
<path d="M26.686 48.8729L26.6898 48.8718C26.8139 48.8336 26.9442 48.8205 27.0732 48.8334C27.2023 48.8464 27.3276 48.8849 27.441 48.947C27.5544 49.0092 27.6544 49.0939 27.734 49.1953C27.8135 49.2966 27.8717 49.4129 27.9048 49.5371C27.9698 49.7809 27.9369 50.0405 27.8139 50.2624C27.6909 50.4842 27.4868 50.6507 27.2435 50.7275C26.9915 50.8007 26.7215 50.7744 26.4898 50.6542C26.2588 50.5342 26.0833 50.3308 26.0008 50.0856C25.9647 49.9619 25.9538 49.8316 25.9687 49.7033C25.9837 49.5751 26.0244 49.4509 26.0881 49.338C26.1519 49.2251 26.238 49.1257 26.3407 49.0457C26.4432 48.966 26.5606 48.9075 26.686 48.8729Z" fill="white" stroke="#CC9952" stroke-width="0.2"/>
<path d="M41.4162 8.24952L41.4165 8.25046L41.42 8.24843C42.078 8.02707 42.7881 8.01228 43.4529 8.20553C44.1178 8.39879 44.7053 8.79106 45.1359 9.32853L45.1403 9.33333C45.5872 9.82228 45.8755 10.4341 45.968 11.0889C46.0489 11.6617 45.977 12.245 45.761 12.7807L45.659 13.0067L45.6566 13.0125C45.4525 13.4916 45.1407 13.9187 44.7444 14.2598C44.3974 14.5583 43.9938 14.784 43.5588 14.9245L38.927 16.2736L38.9249 16.2661L34.144 17.6586C33.3099 17.8842 32.4227 17.7992 31.6499 17.4208C30.9738 17.0898 30.426 16.5537 30.0823 15.894L29.9472 15.6048C29.6399 14.8378 29.6165 13.986 29.8805 13.2004C30.1446 12.4148 30.6794 11.7452 31.3909 11.311L31.3919 11.3107C31.603 11.1797 31.827 11.0709 32.0598 10.985L32.2962 10.906L41.4162 8.24952ZM41.9415 10.1227C40.4071 10.5526 38.8966 11.0106 37.3925 11.4487L32.8798 12.7631C32.6762 12.8132 32.4846 12.9038 32.3165 13.0289C32.1473 13.1548 32.0047 13.3128 31.8987 13.4944C31.7927 13.676 31.7254 13.8772 31.6996 14.0854C31.6739 14.2937 31.6905 14.5054 31.7493 14.7066C31.8079 14.9086 31.9073 15.097 32.0415 15.2593C32.1757 15.4215 32.342 15.5549 32.5299 15.651C32.7179 15.7472 32.924 15.804 33.1351 15.8185C33.2936 15.8294 33.4529 15.8164 33.607 15.7797L42.8151 13.0976L42.9251 13.0666C43.1808 12.9857 43.412 12.8407 43.5967 12.6452C43.8076 12.4219 43.9477 12.1424 44.0003 11.8411L44.0015 11.8417C44.0507 11.574 44.0271 11.2981 43.9344 11.0425C43.8417 10.7868 43.6831 10.5596 43.4735 10.3854C43.2641 10.2113 43.0115 10.096 42.7422 10.0502C42.4739 10.0046 42.1973 10.029 41.9415 10.1227Z" fill="white" stroke="#CC9952" stroke-width="0.2"/>
<path d="M20.0303 14.4701C20.9283 14.2216 21.887 14.3322 22.7004 14.7777C23.463 15.1954 24.0412 15.8765 24.3281 16.6888L24.3821 16.8531C24.5109 17.2958 24.5504 17.7601 24.4982 18.2189C24.4459 18.6778 24.3025 19.1228 24.0768 19.5276C23.8512 19.9323 23.5469 20.2888 23.1824 20.5774C22.8179 20.866 22.4001 21.081 21.9526 21.2092L21.7841 21.2522C20.9363 21.4452 20.0458 21.3237 19.2823 20.9079C18.4682 20.4644 17.8624 19.7212 17.5961 18.8378C17.3416 17.9413 17.4551 16.9795 17.911 16.1615C18.3667 15.3439 19.1282 14.7355 20.0303 14.4701ZM20.5584 16.3353C20.1688 16.4463 19.8376 16.7042 19.6367 17.0544C19.4361 17.4042 19.3811 17.8181 19.4841 18.2065C19.5334 18.4053 19.6228 18.5918 19.7458 18.7558C19.8689 18.9199 20.0234 19.0587 20.2009 19.1624C20.3783 19.266 20.5751 19.3328 20.7793 19.3601C20.9834 19.3873 21.191 19.3737 21.3902 19.3204L21.3921 19.3199C21.7866 19.2077 22.1233 18.9483 22.3306 18.5959C22.5119 18.2876 22.5816 17.9291 22.5318 17.5792L22.5036 17.4298L22.4954 17.4016C22.4392 17.205 22.3446 17.0212 22.2169 16.8613C22.0892 16.7012 21.9306 16.5682 21.7508 16.4691C21.5709 16.3701 21.3725 16.3069 21.1679 16.2839C21.0147 16.2668 20.86 16.2721 20.7087 16.2997L20.5584 16.3353Z" fill="white" stroke="#CC9952" stroke-width="0.2"/>
<path d="M10.9503 17.1149C11.3978 16.9845 11.8668 16.9432 12.3296 16.9928C12.7923 17.0425 13.2404 17.1824 13.6477 17.4043C14.0548 17.6261 14.4132 17.9259 14.7029 18.286C14.9928 18.6462 15.2083 19.0605 15.3364 19.5041C15.4655 19.9469 15.5046 20.4114 15.4516 20.8702C15.3985 21.3287 15.2544 21.7728 15.0276 22.1766C14.8006 22.5806 14.4952 22.9368 14.1292 23.2235C13.7632 23.5103 13.3435 23.7223 12.8951 23.8474C11.9994 24.0973 11.042 23.9863 10.2318 23.5389C9.42168 23.0914 8.8235 22.3434 8.56797 21.4583C8.30975 20.5717 8.41579 19.6178 8.86194 18.8044C9.30798 17.9913 10.0582 17.3837 10.9503 17.1149ZM11.5058 18.9975C11.3091 19.0572 11.1259 19.1547 10.967 19.2847C10.8079 19.4148 10.6762 19.575 10.5793 19.7556C10.4824 19.9364 10.4219 20.1346 10.4021 20.3382C10.3824 20.5417 10.4038 20.7474 10.4642 20.9426L10.4645 20.9435C10.5895 21.3249 10.8569 21.6434 11.2113 21.8347C11.5657 22.0259 11.9805 22.0753 12.3714 21.9728L12.3742 21.972C12.7709 21.8541 13.1064 21.5863 13.3074 21.2262C13.5082 20.8661 13.5594 20.4425 13.449 20.0467L13.4488 20.0458C13.3926 19.8489 13.2969 19.6656 13.1684 19.506C13.04 19.3464 12.8808 19.2141 12.7 19.1165C12.5192 19.019 12.3207 18.9573 12.1157 18.9368C11.9107 18.9164 11.7031 18.9376 11.5058 18.9975Z" fill="white" stroke="#CC9952" stroke-width="0.2"/>
<path d="M48.4058 34.4329C50.0633 33.9501 51.8432 34.1405 53.3534 34.961C54.8635 35.7814 55.9807 37.1649 56.4592 38.8074L56.5382 39.117C56.8957 40.6693 56.6671 42.3049 55.8877 43.7107C55.0561 45.2107 53.664 46.3287 52.0136 46.8226C50.3563 47.305 48.5771 47.1155 47.0672 46.2952C45.557 45.4747 44.4395 44.0905 43.9611 42.4478C43.4828 40.8053 43.6824 39.0382 44.5156 37.5352C45.349 36.0321 46.7483 34.9158 48.4058 34.4329ZM48.9653 36.3225C48.3941 36.4855 47.8598 36.7585 47.394 37.1261C46.9282 37.4936 46.5395 37.9491 46.2502 38.4652C45.9609 38.9813 45.7767 39.5486 45.7081 40.1346C45.6395 40.7206 45.6877 41.3138 45.8504 41.8802L45.855 41.8962C46.1844 43.0431 46.9588 44.0114 48.0077 44.5901C49.0566 45.1688 50.2951 45.3109 51.453 44.9852L51.4539 44.9849C52.6158 44.6442 53.5971 43.8623 54.1849 42.8092C54.7725 41.7561 54.9187 40.5173 54.5915 39.3616L54.5909 39.3598C54.2527 38.2149 53.4704 37.2519 52.4156 36.6826C51.3609 36.1134 50.12 35.984 48.9653 36.3225Z" fill="white" stroke="#CC9952" stroke-width="0.2"/>
</g>
<defs>
<clipPath id="clip0_262_561">
<rect width="55" height="52" fill="white" transform="translate(0 15.3809) rotate(-16.2395)"/>
</clipPath>
</defs>
</svg>
