<svg width="66" height="68" viewBox="0 0 66 68" fill="none" xmlns="http://www.w3.org/2000/svg">
<g clip-path="url(#clip0_262_556)">
<path d="M23.4574 58.2747C23.0895 57.7133 23.3937 57.1584 23.6007 56.7032C24.016 55.7388 24.016 55.7388 23.0975 55.3433L19.8554 53.9471C19.3937 53.7732 18.9734 53.5047 18.6216 53.1589C18.2698 52.813 17.9941 52.3974 17.8123 51.9388C17.6305 51.4802 17.5465 50.9886 17.5659 50.4956C17.5852 50.0027 17.7073 49.5192 17.9245 49.0762C18.9528 46.6882 19.9772 44.3094 21.0016 41.9306L21.2389 41.3795C21.0425 41.3423 20.8394 41.3648 20.6558 41.4441L16.7359 42.4562C16.5683 42.5294 16.3823 42.5492 16.2031 42.513C16.0239 42.4767 15.8603 42.3861 15.7344 42.2536C15.4644 41.9196 15.5753 41.5863 15.7217 41.2465C15.9985 40.6035 16.2754 39.9606 16.5523 39.3177C16.7105 38.9503 16.6267 38.8162 16.2868 38.6699C14.3765 37.8472 12.463 37.0232 10.5465 36.1979C9.56479 35.8238 8.73554 35.1336 8.18955 34.2361C7.64357 33.3386 7.41192 32.2848 7.53115 31.241C7.59093 30.7921 7.7137 30.3538 7.89582 29.9391C8.90045 27.6062 9.90903 25.2642 10.9137 22.9313C11.0877 22.5272 11.3416 22.2663 11.818 22.3735C11.9376 22.3919 12.0508 22.4393 12.1478 22.5116C12.2448 22.5839 12.3226 22.6789 12.3743 22.7882C12.4261 22.8975 12.4503 23.0179 12.4447 23.1387C12.4392 23.2596 12.4042 23.3772 12.3426 23.4813C12.0381 24.1885 11.7335 24.8958 11.4329 25.5938C10.7487 27.1827 10.0684 28.7625 9.38412 30.3514C9.18106 30.7488 9.06507 31.185 9.04386 31.6308C9.02265 32.0766 9.09671 32.5218 9.26112 32.9367C9.42553 33.3516 9.67651 33.7267 9.99731 34.037C10.3181 34.3473 10.7014 34.5856 11.1215 34.7361C13.2983 35.6735 15.4842 36.6149 17.661 37.5522C18.5794 37.9478 18.7011 38.1961 18.2818 39.1697L17.7242 40.4647C17.8578 40.6094 17.9629 40.5676 18.0799 40.4982L21.8554 39.5436C22.0358 39.4957 22.1941 39.387 22.3036 39.2358C22.7714 38.6526 23.4141 38.235 24.1371 38.0445C24.8601 37.8541 25.6251 37.9008 26.3195 38.1779C26.7237 38.3519 27.137 38.5299 27.5411 38.704C27.9452 38.878 27.9585 38.7966 28.085 38.5027C29.9361 34.2043 31.7871 29.9059 33.6223 25.6443C33.9228 24.9005 33.9201 24.0686 33.6149 23.3267C33.3096 22.5848 32.7261 21.9918 31.9893 21.6747C27.6358 19.7999 23.2792 17.9238 18.9196 16.0464C18.1704 15.7294 17.3265 15.7197 16.5702 16.0193C15.8138 16.3189 15.2055 16.9038 14.8765 17.6479C14.6669 18.1346 14.4573 18.6214 14.2476 19.1082C14.038 19.595 13.6464 19.7965 13.1871 19.5988C12.7279 19.401 12.5999 19.041 12.8463 18.4939C13.1291 17.707 13.4911 16.9509 13.927 16.2373C14.5233 15.3821 15.3914 14.7538 16.3901 14.4545C17.3887 14.1551 18.4593 14.2023 19.4277 14.5885C23.8546 16.4949 28.2724 18.3974 32.6994 20.3038C32.9566 20.4145 33.2094 20.7629 33.4617 20.6321C33.714 20.5012 33.7712 20.0903 33.8978 19.7964C34.8075 17.6839 35.7211 15.5623 36.6308 13.4499C36.9124 12.7025 37.3467 12.0221 37.9062 11.4522C38.4657 10.8823 39.1379 10.4354 39.8799 10.1401C40.6219 9.84477 41.4174 9.70755 42.2155 9.7372C43.0135 9.76685 43.7967 9.96271 44.5147 10.3123L53.9656 14.3822C54.5167 14.6195 54.6948 14.9139 54.5627 15.347C54.4306 15.7801 53.9759 16.0524 53.3789 15.7953L43.9187 11.7214C43.5926 11.5738 43.2546 11.4537 42.9083 11.3625C41.974 11.1418 40.992 11.2526 40.1304 11.676C39.2688 12.0994 38.5812 12.8091 38.1851 13.6837C37.0381 16.3472 35.8871 19.0199 34.7401 21.6834C34.696 21.7815 34.6766 21.8889 34.6835 21.9963C34.6904 22.1036 34.7234 22.2077 34.7797 22.2993C35.1339 22.9468 35.3295 23.669 35.3506 24.4068C35.3717 25.1445 35.2176 25.8767 34.901 26.5434C33.8489 28.9865 32.7968 31.4296 31.7368 33.891C31.6589 34.0206 31.6302 34.174 31.656 34.323C31.6818 34.472 31.7603 34.6068 31.8772 34.7027C32.3355 35.1596 32.8762 35.5255 33.4707 35.7809L41.6083 39.2852C42.3981 39.6254 42.5092 39.9237 42.1743 40.7267L41.1815 43.032C41.4112 43.1309 41.5715 43.0366 41.7436 42.991C43.3607 42.5985 44.9777 42.2061 46.604 41.8177C46.916 41.734 47.2471 41.7577 47.544 41.885C48.4422 42.3279 49.371 42.706 50.3231 43.0164C51.2691 43.2852 52.2803 43.204 53.1714 42.7879C54.0624 42.3718 54.7737 41.6485 55.1749 40.7507C57.5481 35.2399 59.9304 29.7078 62.322 24.1542C62.5405 23.6535 62.6577 23.1146 62.667 22.5685C62.6762 22.0224 62.5773 21.4798 62.376 20.9721C62.1746 20.4644 61.8748 20.0015 61.4937 19.6102C61.1127 19.2188 60.658 18.9068 60.1558 18.692C59.4669 18.3953 58.7781 18.0987 58.0801 17.7981C57.5566 17.5726 57.4009 17.2008 57.6079 16.7455C57.6451 16.6439 57.7047 16.5519 57.7823 16.4765C57.8598 16.4011 57.9534 16.3442 58.0561 16.3099C58.1587 16.2756 58.2677 16.2649 58.3751 16.2786C58.4824 16.2923 58.5853 16.33 58.676 16.3889C59.8187 16.7956 60.9084 17.338 61.9218 18.0044C62.8987 18.7546 63.6037 19.8035 63.9295 20.9914C64.2552 22.1793 64.1839 23.4411 63.7262 24.5847C61.3347 30.1383 58.9444 35.6888 56.5554 41.2363C55.9367 42.5874 54.8148 43.6434 53.4288 44.1794C52.0428 44.7153 50.5023 44.6888 49.1355 44.1055C48.5569 43.8563 47.9691 43.6032 47.3905 43.354C47.1136 43.2224 46.7976 43.1989 46.5043 43.2881L40.2605 44.8674C39.8717 44.9612 39.5118 45.0131 39.255 44.6739C39.1465 44.5305 39.0857 44.3568 39.0811 44.1771C39.0764 43.9974 39.1283 43.8207 39.2292 43.672C39.6247 42.7535 40.0202 41.8351 40.3841 40.9901C40.5661 40.5676 40.5427 40.3942 40.0927 40.2004C37.9435 39.2749 35.7943 38.3494 33.6635 37.4318C32.6559 37.0711 31.7302 36.5133 30.9404 35.791L29.916 38.1698C29.742 38.5739 29.3919 39.0328 29.4793 39.3862C29.5666 39.7396 30.2388 39.8221 30.6521 40.0001L35.3546 42.0252C35.8424 42.1912 36.2885 42.4609 36.6622 42.8157C37.036 43.1704 37.3285 43.6019 37.5196 44.0804C37.7108 44.559 37.7961 45.0732 37.7697 45.5878C37.7433 46.1025 37.6058 46.6053 37.3666 47.0617C36.9197 48.0996 36.4727 49.1374 36.0298 50.1661C35.7885 50.7263 35.3392 50.8595 34.8657 50.5685C34.3922 50.2775 34.4624 49.9375 34.6364 49.5334L35.9337 46.5208C36.5744 45.0329 36.1731 44.0435 34.676 43.3988L26.1619 39.7323C24.674 39.0916 23.6885 39.4838 23.0398 40.99L19.3931 49.4582C19.2174 49.7352 19.1099 50.0499 19.0797 50.3766C19.0495 50.7032 19.0973 51.0323 19.2192 51.3369C19.3411 51.6414 19.5337 51.9126 19.781 52.1281C20.0283 52.3436 20.3233 52.4972 20.6417 52.5763L24.9768 54.4432C25.8952 54.8387 25.967 55.0765 25.5926 55.9713L25.4146 56.3846C25.518 56.5489 25.6258 56.4756 25.7401 56.4377C26.11 56.3612 26.4754 56.2641 26.8344 56.1468C27.2443 55.9869 27.6844 55.9191 28.1234 55.9482C28.5625 55.9774 28.9897 56.1027 29.3749 56.3154C29.6253 56.4466 29.9006 56.5232 30.1828 56.5402C30.4649 56.5572 30.7475 56.5142 31.0118 56.4141C31.2761 56.3139 31.5162 56.1588 31.7163 55.9591C31.9163 55.7594 32.0717 55.5195 32.1723 55.2554C32.3424 54.8604 32.5085 54.4747 32.6785 54.0797C32.7121 53.9862 32.7655 53.901 32.8351 53.83C32.9046 53.759 32.9887 53.7039 33.0815 53.6684C33.1743 53.6329 33.2737 53.6179 33.3729 53.6243C33.4721 53.6308 33.5687 53.6586 33.6561 53.7059C33.752 53.7342 33.8405 53.7832 33.9153 53.8496C33.99 53.9159 34.0493 53.9979 34.0887 54.0898C34.1282 54.1816 34.1469 54.281 34.1436 54.3809C34.1402 54.4808 34.1149 54.5788 34.0694 54.6678C33.8389 55.4009 33.4995 56.0953 33.0626 56.7276C32.591 57.3427 31.9271 57.7822 31.1766 57.976C30.4262 58.1698 29.6324 58.1068 28.9219 57.797C28.3269 57.5092 27.643 57.4646 27.0156 57.6729C26.0302 57.989 25.0175 58.217 24.0204 58.4844L23.4574 58.2747Z" fill="white"/>
<path d="M37.3816 26.3704C37.959 25.0295 38.5405 23.6793 39.1219 22.3292C39.4185 21.6404 39.7286 21.5017 40.4359 21.8063C41.5564 22.2888 42.6861 22.7753 43.8158 23.2618C43.9535 23.3211 44.1464 23.4042 44.2291 23.4398C44.4934 23.9891 44.8353 23.7008 45.1677 23.5609C45.8826 23.2155 46.5529 22.8726 47.3006 22.5522C48.2734 22.1128 49.0617 21.3468 49.5287 20.3869C49.632 20.1534 49.7725 19.9381 49.9447 19.7495C50.1498 19.5295 50.4159 19.3758 50.7089 19.308C51.0019 19.2402 51.3085 19.2614 51.5894 19.369C51.8773 19.4583 52.1311 19.6335 52.3168 19.8711C52.5025 20.1087 52.6112 20.3973 52.6283 20.6983C52.7346 21.5925 52.6323 22.4993 52.3294 23.3473C52.0266 24.1954 51.5313 24.9618 50.8826 25.5864C50.5222 25.9429 50.6126 26.0363 51.0115 26.1972C51.93 26.5927 52.9219 27.0199 53.8771 27.4312C54.137 27.5279 54.374 27.6775 54.573 27.8706C54.772 28.0637 54.9286 28.2961 55.033 28.553C55.1374 28.8099 55.1872 29.0857 55.1793 29.3628C55.1714 29.64 55.106 29.9125 54.9871 30.163L52.171 36.7025C52.0777 36.9702 51.9286 37.2151 51.7335 37.4208C51.5384 37.6265 51.3018 37.7884 51.0394 37.8957C50.7769 38.0031 50.4947 38.0534 50.2113 38.0433C49.928 38.0332 49.65 37.963 49.3958 37.8374C48.2018 37.3232 47.017 36.813 45.823 36.2988L43.0034 35.0845C42.1285 34.7338 41.3576 34.1658 40.7635 33.434C40.6378 33.271 40.5369 33.1513 40.3319 33.2481C40.2131 33.296 40.0846 33.315 39.957 33.3036C39.8295 33.2922 39.7064 33.2507 39.598 33.1825L36.117 31.6835C35.4925 31.4145 35.3617 31.086 35.6267 30.4707C36.1911 29.135 36.7843 27.7573 37.3816 26.3704ZM51.0523 20.8689C50.9732 21.0526 50.8852 21.08 50.8615 21.1351C50.1805 22.5149 49.0138 23.5945 47.5853 24.1665C46.3907 24.7408 45.2145 25.3231 44.0647 25.8188C43.9543 25.8622 43.8537 25.9276 43.7692 26.011C43.6847 26.0943 43.6179 26.1939 43.5728 26.3037C42.8727 27.9294 42.1687 29.5643 41.4686 31.1899C41.4215 31.2887 41.4 31.3978 41.4062 31.507C41.4125 31.6163 41.4462 31.7222 41.5043 31.815C41.9437 32.6514 42.6649 33.3053 43.5403 33.6608L49.8501 36.378C50.4103 36.6193 50.5549 36.5618 50.7922 36.0107L53.4896 29.7468C53.7507 29.1406 53.7089 29.0355 53.1027 28.7745C51.725 28.1812 50.3473 27.5879 48.9604 26.9907C48.2716 26.694 48.1755 26.1082 48.7095 25.5761C49.1159 25.1632 49.5552 24.7753 49.9433 24.3544C50.3684 23.8877 50.6876 23.3346 50.8791 22.733C51.0705 22.1313 51.1296 21.4955 51.0523 20.8689ZM41.1788 27.9947C41.6297 26.9477 42.0845 25.8915 42.5354 24.8444C42.6541 24.5689 42.6504 24.4257 42.3394 24.3136C41.7975 24.0802 41.2464 23.8429 40.6953 23.6056C40.429 23.4909 40.2819 23.5038 40.1645 23.8016C39.2469 25.9325 38.324 28.0755 37.3959 30.2308C37.2732 30.5156 37.2901 30.6535 37.6011 30.7656C38.143 30.999 38.694 31.2363 39.2359 31.4696C39.5666 31.612 39.6771 31.5072 39.7905 31.2185C40.2559 30.1124 40.72 29.0601 41.1788 27.9947Z" fill="white"/>
<path d="M18.9217 24.5617L19.3442 24.7436C20.4464 25.2183 20.4464 25.2183 21.0942 24.1689C21.3563 23.7374 21.6275 23.3098 21.9211 22.881C21.9694 22.7849 22.0379 22.7003 22.1218 22.633C22.2057 22.5657 22.3031 22.5172 22.4074 22.4909C22.5117 22.4645 22.6204 22.4609 22.7262 22.4803C22.832 22.4997 22.9324 22.5416 23.0206 22.6032C23.1095 22.656 23.186 22.7274 23.2449 22.8124C23.3038 22.8974 23.3437 22.9942 23.3618 23.096C23.3799 23.1978 23.3759 23.3024 23.35 23.4025C23.3241 23.5026 23.277 23.596 23.2117 23.6763C22.8693 24.2692 22.4941 24.8371 22.1268 25.3866C21.9241 25.6804 21.9132 25.8826 22.2964 26.0041C22.6796 26.1256 23.1674 26.5098 23.5168 26.4316C23.8662 26.3535 24.0301 25.7708 24.2828 25.4114C24.5356 25.0521 24.8253 24.5562 25.0991 24.1733C25.1504 24.0837 25.2198 24.0058 25.303 23.9447C25.3862 23.8835 25.4813 23.8405 25.5821 23.8183C25.6829 23.7961 25.7873 23.7952 25.8885 23.8157C25.9897 23.8363 26.0854 23.8778 26.1696 23.9375C26.2551 23.9937 26.3283 24.0667 26.3849 24.1519C26.4415 24.2371 26.4803 24.3328 26.499 24.4334C26.5178 24.534 26.516 24.6373 26.4938 24.7372C26.4716 24.837 26.4295 24.9314 26.37 25.0146C25.996 25.6048 25.6221 26.195 25.2298 26.7773C25.0521 27.0383 25.0439 27.209 25.3824 27.333C25.721 27.4571 26.3009 27.7286 26.6958 27.8986C27.4306 28.2151 27.6703 28.5687 27.4698 29.0594C27.2694 29.5502 26.8307 29.6334 26.0684 29.3052C25.5816 29.0955 25.0948 28.8859 24.6172 28.6802C24.1396 28.4746 24.0383 28.5834 23.8513 28.9166C23.7058 29.221 23.5303 29.5102 23.3272 29.7796C23.114 30.0471 23.161 30.1654 23.4681 30.2867C24.2212 30.6111 24.9744 30.9354 25.7275 31.2597C25.8162 31.2934 25.897 31.345 25.9649 31.4113C26.0328 31.4776 26.0863 31.5573 26.122 31.6452C26.1577 31.7331 26.1749 31.8275 26.1725 31.9224C26.17 32.0172 26.1481 32.1106 26.108 32.1966C26.0766 32.2901 26.0266 32.3763 25.961 32.45C25.8953 32.5236 25.8155 32.5832 25.7262 32.6252C25.6369 32.6671 25.54 32.6905 25.4414 32.694C25.3429 32.6974 25.2446 32.6809 25.1526 32.6453C25.0232 32.6006 24.8974 32.5464 24.776 32.4831C24.0872 32.1865 23.3983 31.8899 22.7095 31.5932C22.388 31.4548 22.2134 31.4558 22.0132 31.7942C21.6391 32.4606 21.2047 33.0901 20.7755 33.7328C20.7248 33.832 20.6532 33.919 20.5656 33.9879C20.4779 34.0567 20.3764 34.1057 20.268 34.1315C20.1596 34.1573 20.0469 34.1592 19.9377 34.1372C19.8284 34.1152 19.7253 34.0697 19.6353 34.0039C19.5503 33.9385 19.4795 33.8566 19.4272 33.763C19.3749 33.6694 19.3421 33.5661 19.331 33.4594C19.3199 33.3528 19.3306 33.245 19.3625 33.1426C19.3944 33.0402 19.4468 32.9454 19.5165 32.8639C19.8655 32.3065 20.2183 31.7399 20.6107 31.1576C20.8344 30.8402 20.7965 30.7259 20.4292 30.5677C19.1341 30.01 19.1341 30.01 18.4086 31.1892C18.1624 31.584 17.9201 31.9696 17.6555 32.3565C17.6059 32.4514 17.5369 32.5348 17.4528 32.6011C17.3688 32.6675 17.2717 32.7154 17.1679 32.7416C17.0641 32.7678 16.9559 32.7718 16.8505 32.7533C16.745 32.7348 16.6446 32.6942 16.5559 32.6342C16.4682 32.58 16.3927 32.508 16.3344 32.4229C16.2761 32.3378 16.2363 32.2415 16.2174 32.1401C16.1985 32.0386 16.2011 31.9344 16.2249 31.834C16.2487 31.7336 16.2932 31.6393 16.3556 31.5572C16.7151 30.9499 17.097 30.3413 17.5116 29.7577C17.7144 29.4639 17.6777 29.3719 17.3523 29.2427C16.838 29.0212 16.3145 28.7957 15.8001 28.5742C15.2858 28.3528 15.0555 27.9269 15.2676 27.4848C15.4798 27.0426 15.8594 26.9448 16.3961 27.165C16.9328 27.3853 17.6177 27.6911 18.233 27.9561C18.481 28.0629 18.6281 28.05 18.7612 27.7916C18.949 27.4663 19.1538 27.1511 19.3747 26.8472C19.5524 26.5862 19.5448 26.4523 19.2102 26.3191C18.5397 26.0304 17.86 25.7377 17.1896 25.4489C16.5191 25.1602 16.3739 24.8146 16.5638 24.3738C16.7536 23.9329 17.1846 23.7918 17.7947 24.0437L18.9217 24.5617ZM20.8571 29.1188C21.6745 29.4708 21.6746 29.4708 22.1236 28.7061L22.183 28.5683C22.6661 27.8509 22.6661 27.8509 21.8579 27.5028C21.0496 27.1548 20.9394 27.1073 20.4061 27.9664C19.8728 28.8256 19.9662 28.7351 20.8479 29.1148L20.8571 29.1188Z" fill="white"/>
<path d="M31.9386 49.1991C31.5414 50.0992 30.8064 50.8072 29.892 51.1704C28.7773 51.5782 27.6053 51.8084 26.4191 51.8524C26.2902 51.8665 26.1598 51.847 26.0407 51.7957C25.9215 51.7444 25.8178 51.6631 25.7394 51.5597C24.8823 50.6085 24.2128 49.5038 23.7663 48.3038C23.5583 47.7305 23.5011 47.1134 23.6001 46.5116C23.6991 45.9098 23.951 45.3436 24.3317 44.8671C24.5854 44.53 24.9149 44.2572 25.2935 44.0709C25.672 43.8846 26.0892 43.79 26.5111 43.7947C26.933 43.7994 27.3479 43.9033 27.7222 44.098C28.0966 44.2927 28.4199 44.5727 28.666 44.9154C28.709 44.993 28.7765 45.0542 28.8579 45.0893C28.9394 45.1244 29.0302 45.1314 29.1161 45.1092C29.6277 45.0339 30.1502 45.1033 30.6244 45.3096C31.0986 45.5158 31.5056 45.8507 31.7993 46.2763C32.093 46.7019 32.2618 47.2013 32.2864 47.7178C32.311 48.2344 32.1905 48.7475 31.9386 49.1991ZM30.5242 48.59C30.6672 48.3342 30.7217 48.0382 30.6792 47.7482C30.6368 47.4582 30.4997 47.1904 30.2893 46.9863C29.8593 46.5943 29.4627 46.6303 28.8056 46.968C28.1485 47.3056 27.6973 47.0133 27.5948 46.3159C27.5704 46.1015 27.4812 45.8996 27.3391 45.7372C27.197 45.5748 27.0086 45.4597 26.7993 45.4072C26.5819 45.3323 26.3468 45.3256 26.1255 45.3878C25.9041 45.4501 25.707 45.5784 25.5605 45.7556C25.3044 46.0462 25.1345 46.4026 25.0701 46.7846C25.0056 47.1666 25.0491 47.559 25.1956 47.9176C25.494 48.7012 25.9136 49.433 26.4393 50.0863C26.4781 50.1509 26.5362 50.2017 26.6054 50.2315C26.6746 50.2613 26.7514 50.2686 26.825 50.2524C27.6481 50.1889 28.4582 50.01 29.2315 49.7209C29.51 49.6288 29.7674 49.4822 29.9886 49.2896C30.2099 49.097 30.3906 48.8623 30.5202 48.5992L30.5242 48.59Z" fill="white"/>
</g>
<defs>
<clipPath id="clip0_262_556">
<rect width="49.22" height="52.45" fill="white" transform="translate(20.7451) rotate(23.2985)"/>
</clipPath>
</defs>
</svg>
