<svg width="42" height="42" viewBox="0 0 42 42" fill="none" xmlns="http://www.w3.org/2000/svg">
<g clip-path="url(#clip0_262_571)">
<path d="M41.9919 19.5052C41.7582 20.7431 41.2196 21.9032 40.4248 22.8806C39.9809 23.4031 39.4606 23.8556 38.8817 24.2228C38.4156 24.5121 38.078 24.4719 37.8128 24.1022C37.5476 23.7325 37.7325 23.4111 38.1745 23.1137C38.9664 22.6285 39.6175 21.9443 40.0631 21.1294C40.5086 20.3144 40.7331 19.3971 40.7141 18.4685C40.7249 17.3162 40.3629 16.1912 39.6822 15.2614C39.0015 14.3316 38.0385 13.6467 36.9368 13.3089C36.2276 13.0766 35.4782 12.9926 34.7351 13.0619C33.992 13.1313 33.2711 13.3525 32.617 13.7119C31.963 14.0713 31.3897 14.5613 30.9328 15.1514C30.4759 15.7415 30.1451 16.4192 29.9609 17.1424C29.7745 17.8688 29.7398 18.6258 29.8589 19.3663C29.9781 20.1067 30.2486 20.8146 30.6536 21.4458C31.0586 22.077 31.5893 22.618 32.2127 23.0349C32.836 23.4519 33.5386 23.7359 34.2767 23.8692C34.6651 23.9483 35.0624 23.9753 35.4581 23.9495C35.9563 23.9495 36.2617 24.1665 36.2617 24.5844C36.2617 25.0023 35.9965 25.2434 35.5143 25.2676C34.0004 25.3488 32.5055 24.8998 31.287 23.9977C31.0298 23.8129 30.8771 23.8049 30.6682 23.9977C30.4742 24.2266 30.2589 24.4365 30.0252 24.6246C29.7727 24.8649 29.4375 24.9989 29.0889 24.9989C28.7404 24.9989 28.4052 24.8649 28.1527 24.6246C27.7856 24.2805 27.2973 24.0956 26.7945 24.1103C25.362 23.957 23.918 24.2639 22.6716 24.9863C20.8553 26.0632 18.9667 27.0115 17.0941 28C16.7968 28.1608 16.7325 28.3054 16.9173 28.5948C17.279 29.1734 17.6165 29.7681 17.9621 30.3628C18.0334 30.4429 18.0868 30.5372 18.1188 30.6396C18.1508 30.7419 18.1607 30.8498 18.1478 30.9563C18.1349 31.0627 18.0994 31.1651 18.0439 31.2568C17.9883 31.3485 17.9138 31.4273 17.8254 31.488C17.4879 31.8255 17.1504 32.1711 16.8048 32.5006C16.7712 32.5277 16.7442 32.562 16.7256 32.601C16.707 32.6399 16.6973 32.6825 16.6973 32.7256C16.6973 32.7688 16.707 32.8114 16.7256 32.8503C16.7442 32.8893 16.7712 32.9236 16.8048 32.9507C17.3272 33.6981 17.8415 34.4535 18.3559 35.209C18.4023 35.2847 18.4673 35.3472 18.5446 35.3908C18.6219 35.4344 18.7091 35.4576 18.7979 35.4581C18.9762 35.4608 19.152 35.5009 19.314 35.5756C19.4759 35.6503 19.6204 35.7582 19.7382 35.8921C20.0677 36.2377 20.4133 36.5592 20.7428 36.9047C20.8697 37.0119 20.9717 37.1454 21.0416 37.296C21.1116 37.4466 21.1478 37.6107 21.1478 37.7767C21.1478 37.9428 21.1116 38.1068 21.0416 38.2575C20.9717 38.4081 20.8697 38.5416 20.7428 38.6487C19.7784 39.6346 18.8033 40.6097 17.8174 41.5741C17.7111 41.7008 17.5782 41.8027 17.4283 41.8726C17.2783 41.9425 17.1149 41.9788 16.9494 41.9788C16.784 41.9788 16.6206 41.9425 16.4706 41.8726C16.3207 41.8027 16.1878 41.7008 16.0815 41.5741C15.7037 41.2124 15.3421 40.8508 14.9804 40.4731C14.8309 40.34 14.7204 40.1687 14.6609 39.9775C14.6014 39.7863 14.5952 39.5825 14.6429 39.3881C14.6658 39.2966 14.6652 39.2007 14.6414 39.1094C14.6175 39.0182 14.571 38.9343 14.5063 38.8657C14.0241 38.1987 13.5499 37.5396 13.0757 36.8646C12.7623 36.4306 12.7944 36.0207 13.14 35.7957C13.4856 35.5706 13.8392 35.6832 14.1446 36.1091C14.5786 36.7038 15.0126 37.3066 15.4305 37.9093C15.5671 38.1022 15.6636 38.1263 15.8404 37.9093C16.3172 37.4218 16.7994 36.9396 17.287 36.4627C17.3222 36.437 17.3514 36.4041 17.3728 36.3662C17.3942 36.3283 17.4073 36.2862 17.4111 36.2428C17.4149 36.1994 17.4094 36.1557 17.3949 36.1146C17.3804 36.0736 17.3573 36.036 17.3272 36.0046C16.0199 34.124 14.7179 32.2488 13.4213 30.3789C13.2767 30.1619 13.14 30.1458 12.915 30.2584C12.2996 30.6906 11.7407 31.1982 11.2514 31.7693C11.1067 31.8979 11.2514 32.0184 11.3076 32.1229C11.6211 32.5729 11.9426 33.015 12.256 33.457C12.5694 33.899 12.5453 34.2607 12.1997 34.5339C11.8541 34.8072 11.5166 34.6625 11.1951 34.2365C10.8737 33.8106 10.6486 33.4811 10.3915 33.1034C10.2468 32.8944 10.1182 32.8623 9.94141 33.1034C9.75602 33.3589 9.50238 33.557 9.20956 33.675C8.91673 33.793 8.59659 33.826 8.28584 33.7704C8.1251 33.7704 8.03671 33.8588 7.94026 33.9472C7.65898 34.2124 7.4018 34.5018 7.13659 34.7509C6.86676 34.9921 6.51472 35.1208 6.15293 35.1103C5.79114 35.0998 5.44712 34.9511 5.19169 34.6946C3.58434 33.0873 1.97699 31.4799 0.417864 29.9208C0.182707 29.6759 0.0429135 29.3549 0.0237525 29.0159C0.00459147 28.6769 0.107323 28.3422 0.313382 28.0724C0.451555 27.8861 0.607694 27.7138 0.779527 27.558C1.10903 27.2285 1.43854 26.9472 1.3421 26.3766C1.33504 26.1701 1.37815 25.965 1.46773 25.7789C1.55731 25.5927 1.69069 25.431 1.85645 25.3077C2.5235 24.6487 3.15036 23.9415 3.86563 23.3226C4.57104 22.5988 5.13764 21.7516 5.53728 20.8232C7.14462 17.8657 8.75197 14.8841 10.3593 11.9185C10.8789 11.0454 11.1016 10.0275 10.9942 9.01726C10.9743 8.81147 10.9743 8.60423 10.9942 8.39843C11.0336 8.12509 11.0075 7.84631 10.9181 7.58503C10.8287 7.32375 10.6785 7.08745 10.4799 6.89556C10.2325 6.64189 10.094 6.30157 10.094 5.94722C10.094 5.59287 10.2325 5.25256 10.4799 4.99889C11.0344 4.39614 11.6211 3.81748 12.2158 3.25491C12.4847 3.00581 12.8378 2.86743 13.2043 2.86743C13.5709 2.86743 13.9239 3.00581 14.1928 3.25491C14.6992 3.713 15.1733 4.20325 15.6475 4.70152C15.7164 4.75834 15.7728 4.82891 15.813 4.90872C15.8531 4.98853 15.8762 5.07583 15.8807 5.16506C15.8853 5.25429 15.8712 5.34349 15.8393 5.42696C15.8074 5.51043 15.7585 5.58635 15.6957 5.64987C15.6346 5.72117 15.5588 5.7784 15.4735 5.81764C15.3882 5.85688 15.2954 5.87719 15.2015 5.87719C15.1075 5.87719 15.0148 5.85688 14.9294 5.81764C14.8441 5.7784 14.7683 5.72117 14.7072 5.64987C14.3375 5.31232 13.9919 4.94263 13.6303 4.58901C13.2686 4.23539 13.2124 4.17914 12.8266 4.58901C12.4408 4.99888 12.1274 5.28821 11.7818 5.63379C11.4362 5.97937 11.38 6.03563 11.7818 6.43746C14.0589 8.70382 16.3279 10.9729 18.5889 13.2446C21.9751 16.62 25.3532 19.9981 28.7233 23.3789C29.1733 23.829 29.1733 23.829 29.6234 23.3789L29.8243 23.178C30.0734 22.9851 30.0493 22.8163 29.8243 22.5672C29.2334 21.7948 28.8315 20.8948 28.6509 19.9392C28.6013 19.6317 28.4516 19.3492 28.225 19.1355C24.5334 15.4547 20.8473 11.7685 17.1664 8.07695C17.0269 7.94568 16.8954 7.80613 16.7726 7.65905C16.6553 7.54023 16.5896 7.37997 16.5896 7.21301C16.5896 7.04604 16.6553 6.8858 16.7726 6.76697C16.8309 6.70793 16.9004 6.66105 16.977 6.62905C17.0535 6.59705 17.1357 6.58057 17.2187 6.58057C17.3017 6.58057 17.3838 6.59705 17.4604 6.62905C17.537 6.66105 17.6064 6.70793 17.6647 6.76697C18.0666 7.12863 18.4684 7.51438 18.83 7.91622C18.868 7.9853 18.9215 8.04457 18.9864 8.08931C19.0512 8.13406 19.1256 8.16305 19.2037 8.17398C19.2817 8.1849 19.3612 8.17746 19.4359 8.15225C19.5105 8.12703 19.5783 8.08474 19.6337 8.02873C20.1999 7.605 20.9098 7.42032 21.6108 7.51438C22.0699 7.59407 22.4936 7.81289 22.8243 8.14125C24.2147 9.5316 25.6131 10.9139 26.9954 12.3123C27.3455 12.6548 27.5749 13.1018 27.6488 13.586C27.7227 14.0702 27.6372 14.5652 27.4052 14.9966C26.9311 15.9771 26.9311 15.9771 27.7026 16.7406L28.3134 17.3514C28.5063 17.5603 28.5947 17.496 28.6349 17.2469C28.7539 16.588 28.9792 15.9529 29.3019 15.3663C29.9654 14.1144 31.0043 13.1017 32.2727 12.4704C33.5412 11.8391 34.9754 11.6208 36.3742 11.8462C37.7577 12.0707 39.039 12.7143 40.0451 13.6902C41.0511 14.666 41.7335 15.9271 42 17.3031C42.0167 17.3979 42.0381 17.4918 42.0643 17.5844L41.9919 19.5052ZM26.0551 22.8003L12.2801 9.02529V9.6843C12.29 10.5617 12.0771 11.4272 11.6613 12.1998C11.2755 12.9472 10.8576 13.6866 10.4558 14.434C9.0145 17.1129 7.57325 19.7918 6.132 22.4708C6.01145 22.6877 5.93912 22.8646 6.132 23.0816C8.101 25.0345 10.0539 26.9954 12.0149 28.9564C12.0427 28.9941 12.0776 29.026 12.1178 29.0501C12.158 29.0742 12.2025 29.09 12.2489 29.0968C12.2953 29.1035 12.3425 29.1009 12.3879 29.0893C12.4332 29.0776 12.4758 29.057 12.5132 29.0287C15.3662 27.4857 18.2192 25.9346 21.0884 24.4076C22.0979 23.7561 23.1972 23.2552 24.3513 22.9208C24.9139 22.8249 25.4846 22.7845 26.0551 22.8003ZM8.61535 32.4444C8.76001 32.4444 8.84038 32.3559 8.92878 32.2756C9.6119 31.5925 10.295 30.9013 10.9862 30.2262C11.171 30.0414 11.1389 29.9208 10.9862 29.752L5.36047 24.1263C5.18366 23.9415 5.07114 23.9656 4.90237 24.1263C4.22728 24.8175 3.54417 25.5006 2.85301 26.1757C2.63602 26.3846 2.63602 26.5373 2.85301 26.7543L8.35013 32.2434C8.41511 32.3367 8.50795 32.4071 8.61535 32.4444ZM21.217 8.8083C21.0248 8.80008 20.8338 8.84161 20.6624 8.92886C20.1641 9.16996 20.1561 9.2021 20.5419 9.58786L25.5166 14.5626L25.7497 14.7957C25.7629 14.8156 25.7808 14.8319 25.8018 14.8432C25.8228 14.8545 25.8464 14.8604 25.8702 14.8604C25.8941 14.8604 25.9176 14.8545 25.9386 14.8432C25.9597 14.8319 25.9776 14.8156 25.9908 14.7957C26.2028 14.5819 26.3218 14.2931 26.3218 13.992C26.3218 13.6909 26.2028 13.4021 25.9908 13.1883C24.6406 11.8221 23.2744 10.4639 21.9162 9.10567C21.8314 9.00285 21.7244 8.92052 21.6034 8.86486C21.4823 8.80919 21.3502 8.78161 21.217 8.78419V8.8083ZM2.25025 28.0563C2.20453 28.0559 2.1594 28.0667 2.11879 28.0877C2.07818 28.1087 2.0433 28.1393 2.01718 28.1768C1.88055 28.3054 1.76001 28.4581 1.60731 28.5787C1.29388 28.8198 1.31799 29.0207 1.60731 29.294C2.92534 30.5879 4.21121 31.8979 5.5212 33.1918C6.26058 33.9231 6.05163 33.9392 6.84727 33.1918C7.06426 32.9828 7.0723 32.8462 6.84727 32.6292C5.37654 31.1745 3.91386 29.7038 2.45117 28.2411L2.25025 28.0563ZM16.9334 40.5775C17.07 40.5775 17.1263 40.457 17.1986 40.3847L19.0872 38.5041C19.7864 37.8049 19.7784 37.8129 19.0872 37.1217C18.8863 36.9289 18.7658 36.9449 18.5889 37.1217C17.9219 37.8049 17.2388 38.4719 16.5637 39.155C15.8886 39.8382 15.9529 39.589 16.5637 40.2239C16.663 40.358 16.7888 40.4702 16.9334 40.5534V40.5775ZM15.8966 31.5684C15.9205 31.5727 15.945 31.5727 15.969 31.5684C16.2052 31.3649 16.4182 31.1357 16.6039 30.8852C16.7325 30.6763 16.4672 30.4995 16.3788 30.3066C16.2904 30.1137 16.1618 29.9289 16.0493 29.744C15.5269 28.876 15.535 28.876 14.675 29.3904C14.4741 29.5109 14.4259 29.6074 14.5706 29.8083C14.9483 30.3387 15.318 30.8772 15.6877 31.4157C15.7198 31.4398 15.7841 31.5282 15.8966 31.5442V31.5684Z" fill="white"/>
<path d="M41.9921 8.8565C41.9014 8.98181 41.7795 9.08116 41.6385 9.14462C41.4975 9.20808 41.3423 9.23344 41.1884 9.21817H32.5971C32.307 9.20427 32.0216 9.29559 31.7934 9.47533L29.2297 11.3881C29.1263 11.4907 28.9954 11.5613 28.8528 11.5912C28.7102 11.6212 28.562 11.6092 28.426 11.5568C28.2881 11.477 28.177 11.358 28.1069 11.2149C28.0368 11.0718 28.0108 10.9111 28.0322 10.7532C28.0322 10.3594 28.0322 9.9495 28.0322 9.56374C28.0322 9.29853 27.9278 9.19405 27.6706 9.21012C27.4134 9.22619 27.1241 9.21012 26.8669 9.21012C26.7737 9.2197 26.6796 9.20882 26.5911 9.17822C26.5026 9.14763 26.4218 9.09806 26.3545 9.03299C26.2871 8.96793 26.2348 8.88894 26.2011 8.80154C26.1675 8.71414 26.1533 8.62044 26.1597 8.52701C26.1597 5.90703 26.1597 3.28705 26.1597 0.667075C26.1659 0.538712 26.2001 0.413243 26.2597 0.299428C26.3194 0.185612 26.4032 0.0861822 26.5053 0.00805664H41.6625C41.9438 0.00805664 42.0001 0.0643124 42.0001 0.345598C41.984 3.17453 41.9921 6.0115 41.9921 8.8565ZM29.3824 9.66018C30.0414 9.17797 30.6201 8.76811 31.1666 8.32609C31.4946 8.05829 31.9086 7.91839 32.3319 7.93228C34.984 7.93228 37.6281 7.93228 40.2802 7.93228C40.6419 7.93228 40.7464 7.8278 40.7464 7.46615C40.7464 5.56948 40.7464 3.67281 40.7464 1.77614C40.7464 1.34215 40.6097 1.25375 40.2079 1.25375C37.2584 1.25375 34.3089 1.25375 31.3675 1.25375C30.2182 1.25375 29.077 1.25375 27.9278 1.25375C27.6786 1.25375 27.5018 1.25375 27.5018 1.5913C27.5018 3.58441 27.5018 5.60966 27.5018 7.57866C27.5018 7.81173 27.5902 7.93228 27.8394 7.9162C28.0885 7.90013 28.3859 7.9162 28.643 7.9162C28.7394 7.90667 28.8366 7.91821 28.928 7.95004C29.0195 7.98186 29.1029 8.0332 29.1724 8.10049C29.242 8.16779 29.2961 8.24943 29.331 8.33974C29.3659 8.43004 29.3807 8.52684 29.3744 8.62344C29.3824 8.92884 29.3824 9.2262 29.3824 9.64411V9.66018Z" fill="white"/>
<path d="M32.5969 18.5005C32.5969 17.5575 32.5969 16.6172 32.5969 15.6796C32.5969 14.9643 33.0631 14.675 33.6819 15.0206C35.3696 15.9529 37.0546 16.9012 38.737 17.8656C39.3478 18.2112 39.3478 18.7818 38.737 19.1354C37.0493 20.0998 35.3455 21.0562 33.6417 21.9965C33.0711 22.318 32.605 21.9965 32.605 21.3616C32.5969 20.3891 32.5969 19.4569 32.5969 18.5005ZM37.1859 18.5005L34.0998 16.7646C33.9391 16.6762 33.8828 16.7646 33.8828 16.9092C33.8828 17.9781 33.8828 19.039 33.8828 20.1239C33.8828 20.2927 33.9391 20.349 34.0998 20.2525L37.1859 18.5005Z" fill="white"/>
<path d="M34.0839 3.94596H29.7038C29.1493 3.94596 28.8037 3.67272 28.8037 3.26285C28.8037 2.85297 29.1252 2.61187 29.7119 2.61187H38.4639C38.615 2.60494 38.7664 2.61844 38.9139 2.65205C39.0484 2.68482 39.1678 2.76233 39.2525 2.87184C39.3372 2.98135 39.3822 3.11638 39.3801 3.2548C39.3881 3.39274 39.3497 3.52941 39.2711 3.64302C39.1924 3.75662 39.078 3.84064 38.9461 3.88168C38.7643 3.93856 38.5734 3.96037 38.3835 3.94596H34.0839Z" fill="white"/>
<path d="M32.4122 6.58206C31.4478 6.58206 30.4754 6.58206 29.5109 6.58206C29.4214 6.58749 29.3316 6.57478 29.247 6.54471C29.1625 6.51463 29.0849 6.46779 29.0188 6.40702C28.9528 6.34624 28.8997 6.27276 28.8628 6.19098C28.8258 6.1092 28.8057 6.0208 28.8037 5.93107C28.8146 5.76043 28.8862 5.59933 29.0056 5.47696C29.1251 5.35459 29.2844 5.27905 29.4547 5.26402H35.3054C35.4017 5.25262 35.4992 5.26183 35.5916 5.29101C35.684 5.3202 35.7691 5.36871 35.8413 5.43331C35.9135 5.49792 35.9712 5.57716 36.0104 5.66575C36.0497 5.75434 36.0696 5.85026 36.0689 5.94715C36.0689 6.33291 35.7555 6.59009 35.2653 6.59812C34.3089 6.59812 33.3525 6.59812 32.3961 6.59812L32.4122 6.58206Z" fill="white"/>
</g>
<defs>
<clipPath id="clip0_262_571">
<rect width="42" height="42" fill="white"/>
</clipPath>
</defs>
</svg>
